%TF.GenerationSoftware,KiCad,Pcbnew,10.0.5*%
%TF.CreationDate,2026-09-24T00:34:11-07:00*%
%TF.ProjectId,Coin Cell Battery Charger,436f696e-2043-4656-9c6c-204261747465,rev?*%
%TF.SameCoordinates,Original*%
%TF.FileFunction,Copper,L2,Inr*%
%TF.FilePolarity,Positive*%
%FSLAX46Y46*%
G04 Gerber Fmt 4.6, Leading zero omitted, Abs format (unit mm)*
G04 Created by KiCad (PCBNEW 10.0.5) date 2026-09-24 00:34:11*
%MOMM*%
%LPD*%
G01*
G04 APERTURE LIST*
%TA.AperFunction,ViaPad*%
%ADD10C,0.558800*%
%TD*%
G04 APERTURE END LIST*
D10*
%TO.N,VBATT*%
X165875000Y-120396200D03*
X156426200Y-123241000D03*
%TO.N,GND*%
X150381000Y-123774400D03*
X150381000Y-123114000D03*
X152590800Y-123774400D03*
X152590800Y-123114000D03*
%TO.N,VDD*%
X160947400Y-119812000D03*
X160261600Y-119989800D03*
X159550400Y-120167600D03*
%TO.N,Net-(U1-ISET)*%
X139586000Y-123241000D03*
%TO.N,Net-(U5-LED2)*%
X124092000Y-100000000D03*
%TO.N,GND*%
X128908000Y-100000000D03*
%TO.N,/PWM_OUT*%
X128908000Y-100950000D03*
X171092000Y-99050000D03*
%TO.N,Net-(U4-LED2)*%
X175908000Y-100000000D03*
%TO.N,Net-(U4-LED4)*%
X172352000Y-102082800D03*
%TO.N,Net-(U4-LED3)*%
X174638000Y-102133600D03*
%TO.N,GND*%
X159931400Y-125654000D03*
%TO.N,Net-(Q2-G)*%
X158514638Y-127234438D03*
%TO.N,Net-(U6-~{PB})*%
X167094200Y-117373600D03*
%TO.N,Net-(U5-LED3)*%
X123304600Y-92583200D03*
%TO.N,VDD*%
X148713800Y-71984000D03*
X177984000Y-101286200D03*
X121984000Y-101286200D03*
X129325000Y-118923000D03*
X131077000Y-79325000D03*
X168923000Y-79325000D03*
X170675000Y-118923000D03*
%TO.N,Net-(U4-LED4)*%
X153276600Y-128000000D03*
%TO.N,/PWM_OUT*%
X164046200Y-79248200D03*
%TO.N,GND*%
X161480800Y-117526000D03*
X167881600Y-80340400D03*
X165240000Y-75057200D03*
X166687800Y-76657400D03*
X167983200Y-83286800D03*
X168110200Y-82042200D03*
X172961600Y-82728000D03*
%TO.N,VDD*%
X175501600Y-86334800D03*
%TO.N,GND*%
X176360600Y-88177400D03*
%TO.N,VDD*%
X162674600Y-76073200D03*
X173139400Y-90322600D03*
%TO.N,Net-(U6-~{PB})*%
X157035800Y-124587200D03*
%TO.N,Net-(Q2-G)*%
X154775200Y-120447000D03*
%TO.N,GND*%
X155476013Y-127759586D03*
X156189592Y-128024021D03*
X165920793Y-123023987D03*
X165392400Y-121488400D03*
X129324400Y-109042400D03*
X136868200Y-119964400D03*
X138738350Y-126117653D03*
X140238350Y-127117653D03*
X142820378Y-126500778D03*
%TO.N,Net-(D1-K)*%
X143862571Y-120710487D03*
%TO.N,Net-(U1-ISET)*%
X141999000Y-119405600D03*
%TO.N,GND*%
X140245792Y-118135600D03*
%TO.N,Net-(D1-K)*%
X144412000Y-128473400D03*
%TO.N,VDD*%
X148984000Y-129286200D03*
%TD*%
%TA.AperFunction,Conductor*%
%TO.N,GND*%
G36*
X150532047Y-70259278D02*
G01*
X151591022Y-70297100D01*
X151593166Y-70297214D01*
X152650185Y-70372814D01*
X152652333Y-70373006D01*
X153705940Y-70486281D01*
X153708105Y-70486552D01*
X154757020Y-70637364D01*
X154759132Y-70637706D01*
X155801999Y-70825859D01*
X155804099Y-70826277D01*
X156839557Y-71051527D01*
X156841722Y-71052039D01*
X157868461Y-71314099D01*
X157870615Y-71314690D01*
X158887318Y-71613221D01*
X158889363Y-71613861D01*
X159894880Y-71948529D01*
X159896881Y-71949236D01*
X160889751Y-72319557D01*
X160891809Y-72320367D01*
X161870788Y-72725873D01*
X161872808Y-72726752D01*
X162836690Y-73166942D01*
X162838700Y-73167903D01*
X163786263Y-73642220D01*
X163788204Y-73643235D01*
X163901507Y-73705103D01*
X164718231Y-74151068D01*
X164720160Y-74152166D01*
X165417952Y-74566185D01*
X165631476Y-74692875D01*
X165633374Y-74694048D01*
X166524795Y-75266930D01*
X166526592Y-75268131D01*
X167037736Y-75623024D01*
X167397024Y-75872482D01*
X167398834Y-75873787D01*
X168247114Y-76508801D01*
X168248876Y-76510170D01*
X169073943Y-77175052D01*
X169075655Y-77176483D01*
X169876485Y-77870405D01*
X169878095Y-77871852D01*
X170653659Y-78593927D01*
X170655264Y-78595476D01*
X171404523Y-79344735D01*
X171406072Y-79346340D01*
X172128144Y-80121901D01*
X172129596Y-80123517D01*
X172442223Y-80484308D01*
X172823516Y-80924344D01*
X172824947Y-80926056D01*
X173489829Y-81751123D01*
X173491198Y-81752885D01*
X174126212Y-82601165D01*
X174127517Y-82602975D01*
X174731849Y-83473378D01*
X174733088Y-83475233D01*
X175305951Y-84366625D01*
X175307124Y-84368523D01*
X175847827Y-85279829D01*
X175848931Y-85281768D01*
X176356755Y-86211778D01*
X176357789Y-86213755D01*
X176832094Y-87161296D01*
X176833057Y-87163309D01*
X177273241Y-88127179D01*
X177274131Y-88129224D01*
X177679632Y-89108190D01*
X177680449Y-89110266D01*
X177777538Y-89370571D01*
X178050751Y-90103085D01*
X178051480Y-90105151D01*
X178386125Y-91110595D01*
X178386791Y-91112724D01*
X178685309Y-92129387D01*
X178685900Y-92131538D01*
X178947960Y-93158277D01*
X178948473Y-93160449D01*
X179173713Y-94195856D01*
X179174148Y-94198044D01*
X179362285Y-95240822D01*
X179362642Y-95243024D01*
X179513443Y-96291869D01*
X179513721Y-96294083D01*
X179626989Y-97347629D01*
X179627188Y-97349851D01*
X179702782Y-98406791D01*
X179702901Y-98409019D01*
X179740721Y-99467952D01*
X179740761Y-99470183D01*
X179740761Y-100529816D01*
X179740721Y-100532047D01*
X179702901Y-101590980D01*
X179702782Y-101593208D01*
X179627188Y-102650148D01*
X179626989Y-102652370D01*
X179513721Y-103705916D01*
X179513443Y-103708130D01*
X179362642Y-104756975D01*
X179362285Y-104759177D01*
X179174148Y-105801955D01*
X179173713Y-105804143D01*
X178948473Y-106839550D01*
X178947960Y-106841722D01*
X178685900Y-107868461D01*
X178685309Y-107870612D01*
X178386791Y-108887275D01*
X178386125Y-108889404D01*
X178051484Y-109894838D01*
X178050741Y-109896943D01*
X177680449Y-110889733D01*
X177679632Y-110891809D01*
X177274131Y-111870775D01*
X177273241Y-111872820D01*
X176833057Y-112836690D01*
X176832094Y-112838703D01*
X176357789Y-113786244D01*
X176356755Y-113788221D01*
X175848931Y-114718231D01*
X175847827Y-114720170D01*
X175307124Y-115631476D01*
X175305951Y-115633374D01*
X174733088Y-116524766D01*
X174731849Y-116526621D01*
X174127517Y-117397024D01*
X174126212Y-117398834D01*
X173491198Y-118247114D01*
X173489829Y-118248876D01*
X172824947Y-119073943D01*
X172823516Y-119075655D01*
X172129616Y-119876460D01*
X172128125Y-119878120D01*
X171406072Y-120653659D01*
X171404523Y-120655264D01*
X170655264Y-121404523D01*
X170653659Y-121406072D01*
X169878120Y-122128125D01*
X169876460Y-122129616D01*
X169075655Y-122823516D01*
X169073943Y-122824947D01*
X168248876Y-123489829D01*
X168247114Y-123491198D01*
X167398834Y-124126212D01*
X167397024Y-124127517D01*
X166526621Y-124731849D01*
X166524766Y-124733088D01*
X165633374Y-125305951D01*
X165631476Y-125307124D01*
X164720170Y-125847827D01*
X164718231Y-125848931D01*
X163788221Y-126356755D01*
X163786244Y-126357789D01*
X162838703Y-126832094D01*
X162836690Y-126833057D01*
X161872820Y-127273241D01*
X161870775Y-127274131D01*
X160891809Y-127679632D01*
X160889733Y-127680449D01*
X160203524Y-127936392D01*
X159896931Y-128050744D01*
X159894838Y-128051484D01*
X158889404Y-128386125D01*
X158887275Y-128386791D01*
X157870612Y-128685309D01*
X157868461Y-128685900D01*
X156841722Y-128947960D01*
X156839550Y-128948473D01*
X155804143Y-129173713D01*
X155801955Y-129174148D01*
X154759177Y-129362285D01*
X154756975Y-129362642D01*
X153708130Y-129513443D01*
X153705916Y-129513721D01*
X152652370Y-129626989D01*
X152650148Y-129627188D01*
X151593208Y-129702782D01*
X151590980Y-129702901D01*
X150532048Y-129740721D01*
X150529817Y-129740761D01*
X149470183Y-129740761D01*
X149467952Y-129740721D01*
X149364981Y-129737043D01*
X149321468Y-129717171D01*
X149304752Y-129672352D01*
X149323017Y-129630389D01*
X149370576Y-129582831D01*
X149434178Y-129472670D01*
X149467100Y-129349801D01*
X149467100Y-129222599D01*
X149434178Y-129099730D01*
X149370576Y-128989569D01*
X149370574Y-128989567D01*
X149370571Y-128989563D01*
X149280636Y-128899628D01*
X149280627Y-128899621D01*
X149170475Y-128836024D01*
X149170466Y-128836020D01*
X149047607Y-128803101D01*
X149047602Y-128803100D01*
X149047601Y-128803100D01*
X148920399Y-128803100D01*
X148920398Y-128803100D01*
X148920392Y-128803101D01*
X148797533Y-128836020D01*
X148797524Y-128836024D01*
X148687372Y-128899621D01*
X148687363Y-128899628D01*
X148597428Y-128989563D01*
X148597421Y-128989572D01*
X148533824Y-129099724D01*
X148533820Y-129099733D01*
X148500901Y-129222592D01*
X148500900Y-129222600D01*
X148500900Y-129349799D01*
X148500901Y-129349807D01*
X148533820Y-129472666D01*
X148533824Y-129472675D01*
X148597421Y-129582827D01*
X148597428Y-129582836D01*
X148616594Y-129602002D01*
X148634900Y-129646196D01*
X148616594Y-129690390D01*
X148572400Y-129708696D01*
X148570169Y-129708656D01*
X148409019Y-129702901D01*
X148406791Y-129702782D01*
X147349851Y-129627188D01*
X147347629Y-129626989D01*
X146294083Y-129513721D01*
X146291869Y-129513443D01*
X145243024Y-129362642D01*
X145240822Y-129362285D01*
X144198044Y-129174148D01*
X144195856Y-129173713D01*
X143160449Y-128948473D01*
X143158277Y-128947960D01*
X142131538Y-128685900D01*
X142129387Y-128685309D01*
X141381366Y-128465671D01*
X141191086Y-128409800D01*
X143928900Y-128409800D01*
X143928900Y-128536999D01*
X143928901Y-128537007D01*
X143961820Y-128659866D01*
X143961824Y-128659875D01*
X144025421Y-128770027D01*
X144025428Y-128770036D01*
X144115363Y-128859971D01*
X144115372Y-128859978D01*
X144225524Y-128923575D01*
X144225527Y-128923576D01*
X144225530Y-128923578D01*
X144225531Y-128923578D01*
X144225533Y-128923579D01*
X144300716Y-128943723D01*
X144348399Y-128956500D01*
X144348400Y-128956500D01*
X144475600Y-128956500D01*
X144475601Y-128956500D01*
X144598470Y-128923578D01*
X144708631Y-128859976D01*
X144798576Y-128770031D01*
X144862178Y-128659870D01*
X144895100Y-128537001D01*
X144895100Y-128409799D01*
X144862178Y-128286930D01*
X144798576Y-128176769D01*
X144798574Y-128176767D01*
X144798571Y-128176763D01*
X144708636Y-128086828D01*
X144708627Y-128086821D01*
X144598475Y-128023224D01*
X144598466Y-128023220D01*
X144484460Y-127992673D01*
X144475607Y-127990301D01*
X144475602Y-127990300D01*
X144475601Y-127990300D01*
X144348399Y-127990300D01*
X144348398Y-127990300D01*
X144348392Y-127990301D01*
X144225533Y-128023220D01*
X144225524Y-128023224D01*
X144115372Y-128086821D01*
X144115363Y-128086828D01*
X144025428Y-128176763D01*
X144025421Y-128176772D01*
X143961824Y-128286924D01*
X143961820Y-128286933D01*
X143928901Y-128409792D01*
X143928900Y-128409800D01*
X141191086Y-128409800D01*
X141112717Y-128386789D01*
X141110595Y-128386125D01*
X140841697Y-128296627D01*
X140105151Y-128051480D01*
X140103085Y-128050751D01*
X139796498Y-127936400D01*
X152793500Y-127936400D01*
X152793500Y-128063599D01*
X152793501Y-128063607D01*
X152826420Y-128186466D01*
X152826424Y-128186475D01*
X152890021Y-128296627D01*
X152890028Y-128296636D01*
X152979963Y-128386571D01*
X152979972Y-128386578D01*
X153090124Y-128450175D01*
X153090127Y-128450176D01*
X153090130Y-128450178D01*
X153090131Y-128450178D01*
X153090133Y-128450179D01*
X153147952Y-128465671D01*
X153212999Y-128483100D01*
X153213000Y-128483100D01*
X153340200Y-128483100D01*
X153340201Y-128483100D01*
X153463070Y-128450178D01*
X153573231Y-128386576D01*
X153663176Y-128296631D01*
X153726778Y-128186470D01*
X153759700Y-128063601D01*
X153759700Y-127936399D01*
X153726778Y-127813530D01*
X153687111Y-127744826D01*
X153663178Y-127703372D01*
X153663171Y-127703363D01*
X153573236Y-127613428D01*
X153573227Y-127613421D01*
X153463075Y-127549824D01*
X153463066Y-127549820D01*
X153340207Y-127516901D01*
X153340202Y-127516900D01*
X153340201Y-127516900D01*
X153212999Y-127516900D01*
X153212998Y-127516900D01*
X153212992Y-127516901D01*
X153090133Y-127549820D01*
X153090124Y-127549824D01*
X152979972Y-127613421D01*
X152979963Y-127613428D01*
X152890028Y-127703363D01*
X152890021Y-127703372D01*
X152826424Y-127813524D01*
X152826420Y-127813533D01*
X152793501Y-127936392D01*
X152793500Y-127936400D01*
X139796498Y-127936400D01*
X139209700Y-127717536D01*
X139110266Y-127680449D01*
X139108190Y-127679632D01*
X138129224Y-127274131D01*
X138127179Y-127273241D01*
X138018465Y-127223593D01*
X137902947Y-127170838D01*
X158031538Y-127170838D01*
X158031538Y-127298037D01*
X158031539Y-127298045D01*
X158064458Y-127420904D01*
X158064462Y-127420913D01*
X158128059Y-127531065D01*
X158128066Y-127531074D01*
X158218001Y-127621009D01*
X158218010Y-127621016D01*
X158328162Y-127684613D01*
X158328165Y-127684614D01*
X158328168Y-127684616D01*
X158328169Y-127684616D01*
X158328171Y-127684617D01*
X158398168Y-127703372D01*
X158451037Y-127717538D01*
X158451038Y-127717538D01*
X158578238Y-127717538D01*
X158578239Y-127717538D01*
X158701108Y-127684616D01*
X158811269Y-127621014D01*
X158901214Y-127531069D01*
X158964816Y-127420908D01*
X158997738Y-127298039D01*
X158997738Y-127170837D01*
X158964816Y-127047968D01*
X158901214Y-126937807D01*
X158901212Y-126937805D01*
X158901209Y-126937801D01*
X158811274Y-126847866D01*
X158811265Y-126847859D01*
X158701113Y-126784262D01*
X158701104Y-126784258D01*
X158578245Y-126751339D01*
X158578240Y-126751338D01*
X158578239Y-126751338D01*
X158451037Y-126751338D01*
X158451036Y-126751338D01*
X158451030Y-126751339D01*
X158328171Y-126784258D01*
X158328162Y-126784262D01*
X158218010Y-126847859D01*
X158218001Y-126847866D01*
X158128066Y-126937801D01*
X158128059Y-126937810D01*
X158064462Y-127047962D01*
X158064458Y-127047971D01*
X158031539Y-127170830D01*
X158031538Y-127170838D01*
X137902947Y-127170838D01*
X137163309Y-126833057D01*
X137161296Y-126832094D01*
X136213755Y-126357789D01*
X136211778Y-126356755D01*
X135281768Y-125848931D01*
X135279829Y-125847827D01*
X134368523Y-125307124D01*
X134366625Y-125305951D01*
X133849743Y-124973771D01*
X133475217Y-124733077D01*
X133473394Y-124731860D01*
X133173444Y-124523600D01*
X156552700Y-124523600D01*
X156552700Y-124650799D01*
X156552701Y-124650807D01*
X156585620Y-124773666D01*
X156585624Y-124773675D01*
X156649221Y-124883827D01*
X156649228Y-124883836D01*
X156739163Y-124973771D01*
X156739172Y-124973778D01*
X156849324Y-125037375D01*
X156849327Y-125037376D01*
X156849330Y-125037378D01*
X156849331Y-125037378D01*
X156849333Y-125037379D01*
X156924516Y-125057523D01*
X156972199Y-125070300D01*
X156972200Y-125070300D01*
X157099400Y-125070300D01*
X157099401Y-125070300D01*
X157222270Y-125037378D01*
X157332431Y-124973776D01*
X157422376Y-124883831D01*
X157485978Y-124773670D01*
X157518900Y-124650801D01*
X157518900Y-124523599D01*
X157485978Y-124400730D01*
X157422376Y-124290569D01*
X157422374Y-124290567D01*
X157422371Y-124290563D01*
X157332436Y-124200628D01*
X157332427Y-124200621D01*
X157222275Y-124137024D01*
X157222266Y-124137020D01*
X157099407Y-124104101D01*
X157099402Y-124104100D01*
X157099401Y-124104100D01*
X156972199Y-124104100D01*
X156972198Y-124104100D01*
X156972192Y-124104101D01*
X156849333Y-124137020D01*
X156849324Y-124137024D01*
X156739172Y-124200621D01*
X156739163Y-124200628D01*
X156649228Y-124290563D01*
X156649221Y-124290572D01*
X156585624Y-124400724D01*
X156585620Y-124400733D01*
X156552701Y-124523592D01*
X156552700Y-124523600D01*
X133173444Y-124523600D01*
X133166437Y-124518735D01*
X132602975Y-124127517D01*
X132601165Y-124126212D01*
X131752885Y-123491198D01*
X131751123Y-123489829D01*
X131418728Y-123221968D01*
X131363423Y-123177400D01*
X139102900Y-123177400D01*
X139102900Y-123304599D01*
X139102901Y-123304607D01*
X139135820Y-123427466D01*
X139135824Y-123427475D01*
X139199421Y-123537627D01*
X139199428Y-123537636D01*
X139289363Y-123627571D01*
X139289372Y-123627578D01*
X139399524Y-123691175D01*
X139399527Y-123691176D01*
X139399530Y-123691178D01*
X139399531Y-123691178D01*
X139399533Y-123691179D01*
X139474716Y-123711323D01*
X139522399Y-123724100D01*
X139522400Y-123724100D01*
X139649600Y-123724100D01*
X139649601Y-123724100D01*
X139772470Y-123691178D01*
X139882631Y-123627576D01*
X139972576Y-123537631D01*
X140036178Y-123427470D01*
X140069100Y-123304601D01*
X140069100Y-123177400D01*
X155943100Y-123177400D01*
X155943100Y-123304599D01*
X155943101Y-123304607D01*
X155976020Y-123427466D01*
X155976024Y-123427475D01*
X156039621Y-123537627D01*
X156039628Y-123537636D01*
X156129563Y-123627571D01*
X156129572Y-123627578D01*
X156239724Y-123691175D01*
X156239727Y-123691176D01*
X156239730Y-123691178D01*
X156239731Y-123691178D01*
X156239733Y-123691179D01*
X156314916Y-123711323D01*
X156362599Y-123724100D01*
X156362600Y-123724100D01*
X156489800Y-123724100D01*
X156489801Y-123724100D01*
X156612670Y-123691178D01*
X156722831Y-123627576D01*
X156812776Y-123537631D01*
X156876378Y-123427470D01*
X156909300Y-123304601D01*
X156909300Y-123177399D01*
X156876378Y-123054530D01*
X156812776Y-122944369D01*
X156812774Y-122944367D01*
X156812771Y-122944363D01*
X156722836Y-122854428D01*
X156722827Y-122854421D01*
X156612675Y-122790824D01*
X156612666Y-122790820D01*
X156489807Y-122757901D01*
X156489802Y-122757900D01*
X156489801Y-122757900D01*
X156362599Y-122757900D01*
X156362598Y-122757900D01*
X156362592Y-122757901D01*
X156239733Y-122790820D01*
X156239724Y-122790824D01*
X156129572Y-122854421D01*
X156129563Y-122854428D01*
X156039628Y-122944363D01*
X156039621Y-122944372D01*
X155976024Y-123054524D01*
X155976020Y-123054533D01*
X155943101Y-123177392D01*
X155943100Y-123177400D01*
X140069100Y-123177400D01*
X140069100Y-123177399D01*
X140036178Y-123054530D01*
X139972576Y-122944369D01*
X139972574Y-122944367D01*
X139972571Y-122944363D01*
X139882636Y-122854428D01*
X139882627Y-122854421D01*
X139772475Y-122790824D01*
X139772466Y-122790820D01*
X139649607Y-122757901D01*
X139649602Y-122757900D01*
X139649601Y-122757900D01*
X139522399Y-122757900D01*
X139522398Y-122757900D01*
X139522392Y-122757901D01*
X139399533Y-122790820D01*
X139399524Y-122790824D01*
X139289372Y-122854421D01*
X139289363Y-122854428D01*
X139199428Y-122944363D01*
X139199421Y-122944372D01*
X139135824Y-123054524D01*
X139135820Y-123054533D01*
X139102901Y-123177392D01*
X139102900Y-123177400D01*
X131363423Y-123177400D01*
X130926056Y-122824947D01*
X130924344Y-122823516D01*
X130635169Y-122572945D01*
X130123517Y-122129596D01*
X130121901Y-122128144D01*
X129346340Y-121406072D01*
X129344735Y-121404523D01*
X128595476Y-120655264D01*
X128593927Y-120653659D01*
X128587622Y-120646887D01*
X143379471Y-120646887D01*
X143379471Y-120774086D01*
X143379472Y-120774094D01*
X143412391Y-120896953D01*
X143412395Y-120896962D01*
X143475992Y-121007114D01*
X143475999Y-121007123D01*
X143565934Y-121097058D01*
X143565943Y-121097065D01*
X143676095Y-121160662D01*
X143676098Y-121160663D01*
X143676101Y-121160665D01*
X143676102Y-121160665D01*
X143676104Y-121160666D01*
X143751287Y-121180810D01*
X143798970Y-121193587D01*
X143798971Y-121193587D01*
X143926171Y-121193587D01*
X143926172Y-121193587D01*
X144049041Y-121160665D01*
X144159202Y-121097063D01*
X144249147Y-121007118D01*
X144312749Y-120896957D01*
X144345671Y-120774088D01*
X144345671Y-120646886D01*
X144328464Y-120582666D01*
X144312750Y-120524020D01*
X144312746Y-120524011D01*
X144249149Y-120413859D01*
X144249142Y-120413850D01*
X144159207Y-120323915D01*
X144159198Y-120323908D01*
X144049046Y-120260311D01*
X144049037Y-120260307D01*
X143926178Y-120227388D01*
X143926173Y-120227387D01*
X143926172Y-120227387D01*
X143798970Y-120227387D01*
X143798969Y-120227387D01*
X143798963Y-120227388D01*
X143676104Y-120260307D01*
X143676095Y-120260311D01*
X143565943Y-120323908D01*
X143565934Y-120323915D01*
X143475999Y-120413850D01*
X143475992Y-120413859D01*
X143412395Y-120524011D01*
X143412391Y-120524020D01*
X143379472Y-120646879D01*
X143379471Y-120646887D01*
X128587622Y-120646887D01*
X128560518Y-120617775D01*
X127871852Y-119878095D01*
X127870405Y-119876485D01*
X127176483Y-119075655D01*
X127175052Y-119073943D01*
X127030464Y-118894520D01*
X127002162Y-118859400D01*
X128841900Y-118859400D01*
X128841900Y-118986599D01*
X128841901Y-118986607D01*
X128874820Y-119109466D01*
X128874824Y-119109475D01*
X128938421Y-119219627D01*
X128938428Y-119219636D01*
X129028363Y-119309571D01*
X129028372Y-119309578D01*
X129138524Y-119373175D01*
X129138527Y-119373176D01*
X129138530Y-119373178D01*
X129138531Y-119373178D01*
X129138533Y-119373179D01*
X129213716Y-119393323D01*
X129261399Y-119406100D01*
X129261400Y-119406100D01*
X129388600Y-119406100D01*
X129388601Y-119406100D01*
X129511470Y-119373178D01*
X129565471Y-119342000D01*
X141515900Y-119342000D01*
X141515900Y-119469199D01*
X141515901Y-119469207D01*
X141548820Y-119592066D01*
X141548824Y-119592075D01*
X141612421Y-119702227D01*
X141612428Y-119702236D01*
X141702363Y-119792171D01*
X141702372Y-119792178D01*
X141812524Y-119855775D01*
X141812527Y-119855776D01*
X141812530Y-119855778D01*
X141812531Y-119855778D01*
X141812533Y-119855779D01*
X141865772Y-119870044D01*
X141935399Y-119888700D01*
X141935400Y-119888700D01*
X142062600Y-119888700D01*
X142062601Y-119888700D01*
X142185470Y-119855778D01*
X142295631Y-119792176D01*
X142385576Y-119702231D01*
X142449178Y-119592070D01*
X142482100Y-119469201D01*
X142482100Y-119341999D01*
X142449178Y-119219130D01*
X142428990Y-119184164D01*
X142385578Y-119108972D01*
X142385571Y-119108963D01*
X142295636Y-119019028D01*
X142295627Y-119019021D01*
X142185475Y-118955424D01*
X142185466Y-118955420D01*
X142062607Y-118922501D01*
X142062602Y-118922500D01*
X142062601Y-118922500D01*
X141935399Y-118922500D01*
X141935398Y-118922500D01*
X141935392Y-118922501D01*
X141812533Y-118955420D01*
X141812524Y-118955424D01*
X141702372Y-119019021D01*
X141702363Y-119019028D01*
X141612428Y-119108963D01*
X141612421Y-119108972D01*
X141548824Y-119219124D01*
X141548820Y-119219133D01*
X141515901Y-119341992D01*
X141515900Y-119342000D01*
X129565471Y-119342000D01*
X129621631Y-119309576D01*
X129621636Y-119309571D01*
X129637499Y-119293709D01*
X129711571Y-119219636D01*
X129711576Y-119219631D01*
X129775178Y-119109470D01*
X129808100Y-118986601D01*
X129808100Y-118859399D01*
X129775178Y-118736530D01*
X129711576Y-118626369D01*
X129711574Y-118626367D01*
X129711571Y-118626363D01*
X129621636Y-118536428D01*
X129621627Y-118536421D01*
X129511475Y-118472824D01*
X129511466Y-118472820D01*
X129388607Y-118439901D01*
X129388602Y-118439900D01*
X129388601Y-118439900D01*
X129261399Y-118439900D01*
X129261398Y-118439900D01*
X129261392Y-118439901D01*
X129138533Y-118472820D01*
X129138524Y-118472824D01*
X129028372Y-118536421D01*
X129028363Y-118536428D01*
X128938428Y-118626363D01*
X128938421Y-118626372D01*
X128874824Y-118736524D01*
X128874820Y-118736533D01*
X128841901Y-118859392D01*
X128841900Y-118859400D01*
X127002162Y-118859400D01*
X126510170Y-118248876D01*
X126508801Y-118247114D01*
X125873787Y-117398834D01*
X125872482Y-117397024D01*
X125587812Y-116987021D01*
X125268131Y-116526592D01*
X125266930Y-116524795D01*
X124801087Y-115799930D01*
X124764678Y-115743276D01*
X124744935Y-115712555D01*
X128920500Y-115712555D01*
X128920500Y-115841482D01*
X128945651Y-115967928D01*
X128994989Y-116087042D01*
X129066616Y-116194238D01*
X129157780Y-116285402D01*
X129264976Y-116357029D01*
X129264977Y-116357029D01*
X129264978Y-116357030D01*
X129384089Y-116406367D01*
X129510537Y-116431519D01*
X129639463Y-116431519D01*
X129765911Y-116406367D01*
X129885022Y-116357030D01*
X129992220Y-116285402D01*
X130083383Y-116194239D01*
X130155011Y-116087041D01*
X130204348Y-115967930D01*
X130229500Y-115841482D01*
X130229500Y-115712556D01*
X130204348Y-115586108D01*
X130155011Y-115466997D01*
X130083383Y-115359799D01*
X129992220Y-115268636D01*
X129937038Y-115231764D01*
X129885023Y-115197008D01*
X129765909Y-115147670D01*
X129639463Y-115122519D01*
X129510537Y-115122519D01*
X129384090Y-115147670D01*
X129264976Y-115197008D01*
X129157780Y-115268635D01*
X129066616Y-115359799D01*
X128994989Y-115466995D01*
X128945651Y-115586109D01*
X128920500Y-115712555D01*
X124744935Y-115712555D01*
X124694048Y-115633374D01*
X124692875Y-115631476D01*
X124152172Y-114720170D01*
X124151068Y-114718231D01*
X123902732Y-114263438D01*
X123643235Y-113788204D01*
X123642210Y-113786244D01*
X123167905Y-112838703D01*
X123166942Y-112836690D01*
X122726758Y-111872820D01*
X122725868Y-111870775D01*
X122645067Y-111675705D01*
X122320367Y-110891809D01*
X122319550Y-110889733D01*
X121949236Y-109896881D01*
X121948529Y-109894880D01*
X121613861Y-108889363D01*
X121613221Y-108887318D01*
X121327398Y-107913892D01*
X121314690Y-107870612D01*
X121314099Y-107868461D01*
X121263676Y-107670905D01*
X121260514Y-107658517D01*
X124270500Y-107658517D01*
X124270500Y-107787444D01*
X124295651Y-107913890D01*
X124344989Y-108033004D01*
X124416616Y-108140200D01*
X124507780Y-108231364D01*
X124614976Y-108302991D01*
X124614977Y-108302991D01*
X124614978Y-108302992D01*
X124734089Y-108352329D01*
X124860537Y-108377481D01*
X124989463Y-108377481D01*
X125115911Y-108352329D01*
X125235022Y-108302992D01*
X125342220Y-108231364D01*
X125433383Y-108140201D01*
X125505011Y-108033003D01*
X125554348Y-107913892D01*
X125579500Y-107787444D01*
X125579500Y-107658518D01*
X125554348Y-107532070D01*
X125505011Y-107412959D01*
X125433383Y-107305761D01*
X125342220Y-107214598D01*
X125342219Y-107214597D01*
X125235023Y-107142970D01*
X125115909Y-107093632D01*
X124989463Y-107068481D01*
X124860537Y-107068481D01*
X124734090Y-107093632D01*
X124614976Y-107142970D01*
X124507780Y-107214597D01*
X124416616Y-107305761D01*
X124344989Y-107412957D01*
X124295651Y-107532071D01*
X124270500Y-107658517D01*
X121260514Y-107658517D01*
X121052039Y-106841722D01*
X121051526Y-106839550D01*
X120980301Y-106512135D01*
X120826277Y-105804099D01*
X120825859Y-105801999D01*
X120637706Y-104759132D01*
X120637364Y-104757020D01*
X120486552Y-103708105D01*
X120486278Y-103705916D01*
X120419192Y-103081921D01*
X120373006Y-102652333D01*
X120372814Y-102650185D01*
X120297214Y-101593166D01*
X120297100Y-101591022D01*
X120283942Y-101222600D01*
X121500900Y-101222600D01*
X121500900Y-101349799D01*
X121500901Y-101349807D01*
X121533820Y-101472666D01*
X121533824Y-101472675D01*
X121597421Y-101582827D01*
X121597428Y-101582836D01*
X121687363Y-101672771D01*
X121687372Y-101672778D01*
X121797524Y-101736375D01*
X121797527Y-101736376D01*
X121797530Y-101736378D01*
X121797531Y-101736378D01*
X121797533Y-101736379D01*
X121837251Y-101747021D01*
X121920399Y-101769300D01*
X121920400Y-101769300D01*
X122047600Y-101769300D01*
X122047601Y-101769300D01*
X122170470Y-101736378D01*
X122280631Y-101672776D01*
X122370576Y-101582831D01*
X122434178Y-101472670D01*
X122467100Y-101349801D01*
X122467100Y-101222599D01*
X122434178Y-101099730D01*
X122384454Y-101013607D01*
X122370578Y-100989572D01*
X122370571Y-100989563D01*
X122280636Y-100899628D01*
X122280627Y-100899621D01*
X122257728Y-100886400D01*
X128424900Y-100886400D01*
X128424900Y-101013599D01*
X128424901Y-101013607D01*
X128457820Y-101136466D01*
X128457824Y-101136475D01*
X128521421Y-101246627D01*
X128521428Y-101246636D01*
X128611363Y-101336571D01*
X128611372Y-101336578D01*
X128721524Y-101400175D01*
X128721527Y-101400176D01*
X128721530Y-101400178D01*
X128721531Y-101400178D01*
X128721533Y-101400179D01*
X128796716Y-101420323D01*
X128844399Y-101433100D01*
X128844400Y-101433100D01*
X128971600Y-101433100D01*
X128971601Y-101433100D01*
X129094470Y-101400178D01*
X129204631Y-101336576D01*
X129294576Y-101246631D01*
X129358178Y-101136470D01*
X129391100Y-101013601D01*
X129391100Y-100886399D01*
X129358178Y-100763530D01*
X129294576Y-100653369D01*
X129294574Y-100653367D01*
X129294571Y-100653363D01*
X129204636Y-100563428D01*
X129204627Y-100563421D01*
X129094475Y-100499824D01*
X129094466Y-100499820D01*
X128971607Y-100466901D01*
X128971602Y-100466900D01*
X128971601Y-100466900D01*
X128844399Y-100466900D01*
X128844398Y-100466900D01*
X128844392Y-100466901D01*
X128721533Y-100499820D01*
X128721524Y-100499824D01*
X128611372Y-100563421D01*
X128611363Y-100563428D01*
X128521428Y-100653363D01*
X128521421Y-100653372D01*
X128457824Y-100763524D01*
X128457820Y-100763533D01*
X128424901Y-100886392D01*
X128424900Y-100886400D01*
X122257728Y-100886400D01*
X122170475Y-100836024D01*
X122170466Y-100836020D01*
X122047607Y-100803101D01*
X122047602Y-100803100D01*
X122047601Y-100803100D01*
X121920399Y-100803100D01*
X121920398Y-100803100D01*
X121920392Y-100803101D01*
X121797533Y-100836020D01*
X121797524Y-100836024D01*
X121687372Y-100899621D01*
X121687363Y-100899628D01*
X121597428Y-100989563D01*
X121597421Y-100989572D01*
X121533824Y-101099724D01*
X121533820Y-101099733D01*
X121500901Y-101222592D01*
X121500900Y-101222600D01*
X120283942Y-101222600D01*
X120260400Y-100563424D01*
X120259279Y-100532047D01*
X120259239Y-100529816D01*
X120259239Y-99936400D01*
X123608900Y-99936400D01*
X123608900Y-100063599D01*
X123608901Y-100063607D01*
X123641820Y-100186466D01*
X123641824Y-100186475D01*
X123705421Y-100296627D01*
X123705428Y-100296636D01*
X123795363Y-100386571D01*
X123795372Y-100386578D01*
X123905524Y-100450175D01*
X123905527Y-100450176D01*
X123905530Y-100450178D01*
X123905531Y-100450178D01*
X123905533Y-100450179D01*
X123967942Y-100466901D01*
X124028399Y-100483100D01*
X124028400Y-100483100D01*
X124155600Y-100483100D01*
X124155601Y-100483100D01*
X124278470Y-100450178D01*
X124388631Y-100386576D01*
X124478576Y-100296631D01*
X124542178Y-100186470D01*
X124575100Y-100063601D01*
X124575100Y-99936399D01*
X124542178Y-99813530D01*
X124478576Y-99703369D01*
X124478574Y-99703367D01*
X124478571Y-99703363D01*
X124388636Y-99613428D01*
X124388632Y-99613425D01*
X124388631Y-99613424D01*
X124384097Y-99610806D01*
X124292714Y-99558045D01*
X129745500Y-99558045D01*
X129745500Y-99569254D01*
X129745500Y-100441955D01*
X129780634Y-101246636D01*
X129784057Y-101325038D01*
X129861094Y-102205571D01*
X129976467Y-103081921D01*
X130129954Y-103952394D01*
X130321269Y-104815355D01*
X130550041Y-105669145D01*
X130815835Y-106512135D01*
X131118156Y-107342758D01*
X131456407Y-108159368D01*
X131829969Y-108960474D01*
X132109457Y-109497364D01*
X132238111Y-109744506D01*
X132680066Y-110509994D01*
X133154990Y-111255476D01*
X133372805Y-111566547D01*
X133661975Y-111979526D01*
X133661980Y-111979532D01*
X134200070Y-112680785D01*
X134768236Y-113357899D01*
X135365397Y-114009585D01*
X135990415Y-114634603D01*
X136642101Y-115231764D01*
X136922441Y-115466997D01*
X137215085Y-115712555D01*
X137319215Y-115799930D01*
X137538157Y-115967930D01*
X138020473Y-116338024D01*
X138153998Y-116431519D01*
X138744524Y-116845010D01*
X139490006Y-117319934D01*
X140255494Y-117761889D01*
X140437624Y-117856700D01*
X141039525Y-118170030D01*
X141840631Y-118543592D01*
X142603059Y-118859400D01*
X142657251Y-118881847D01*
X143487855Y-119184161D01*
X143487860Y-119184162D01*
X143487864Y-119184164D01*
X144186058Y-119404304D01*
X144330854Y-119449958D01*
X145184645Y-119678731D01*
X145687782Y-119790273D01*
X146047605Y-119870045D01*
X146677569Y-119981124D01*
X146918083Y-120023533D01*
X147564469Y-120108631D01*
X147658687Y-120121035D01*
X147700114Y-120144952D01*
X147712494Y-120191158D01*
X147688577Y-120232585D01*
X147650529Y-120245500D01*
X147044875Y-120245500D01*
X147000000Y-120245500D01*
X146901269Y-120245500D01*
X146901267Y-120245500D01*
X146901255Y-120245501D01*
X146706239Y-120276389D01*
X146706238Y-120276389D01*
X146518440Y-120337408D01*
X146518437Y-120337409D01*
X146422646Y-120386218D01*
X146342499Y-120427055D01*
X146342496Y-120427056D01*
X146342494Y-120427058D01*
X146182748Y-120543120D01*
X146182740Y-120543127D01*
X146043127Y-120682740D01*
X146043120Y-120682748D01*
X145927058Y-120842494D01*
X145927056Y-120842496D01*
X145927055Y-120842499D01*
X145899496Y-120896585D01*
X145837409Y-121018437D01*
X145837408Y-121018440D01*
X145776389Y-121206238D01*
X145776389Y-121206239D01*
X145745501Y-121401255D01*
X145745500Y-121401271D01*
X145745500Y-121598728D01*
X145745501Y-121598744D01*
X145776389Y-121793760D01*
X145776389Y-121793761D01*
X145837408Y-121981559D01*
X145837409Y-121981562D01*
X145860637Y-122027148D01*
X145927055Y-122157501D01*
X145927058Y-122157505D01*
X146043120Y-122317251D01*
X146043127Y-122317259D01*
X146182740Y-122456872D01*
X146182748Y-122456879D01*
X146342499Y-122572945D01*
X146518439Y-122662591D01*
X146706237Y-122723610D01*
X146788437Y-122736629D01*
X146901255Y-122754498D01*
X146901261Y-122754498D01*
X146901269Y-122754500D01*
X146901271Y-122754500D01*
X153098729Y-122754500D01*
X153098731Y-122754500D01*
X153293763Y-122723610D01*
X153481561Y-122662591D01*
X153657501Y-122572945D01*
X153817252Y-122456879D01*
X153956879Y-122317252D01*
X154072945Y-122157501D01*
X154162591Y-121981561D01*
X154223610Y-121793763D01*
X154254500Y-121598731D01*
X154254500Y-121500000D01*
X154254500Y-121455125D01*
X154254500Y-121401269D01*
X154223610Y-121206237D01*
X154162591Y-121018439D01*
X154072945Y-120842499D01*
X153956879Y-120682748D01*
X153956872Y-120682740D01*
X153817259Y-120543127D01*
X153817255Y-120543124D01*
X153817252Y-120543121D01*
X153659426Y-120428453D01*
X153657503Y-120427056D01*
X153571824Y-120383400D01*
X154292100Y-120383400D01*
X154292100Y-120510599D01*
X154292101Y-120510607D01*
X154325020Y-120633466D01*
X154325024Y-120633475D01*
X154388621Y-120743627D01*
X154388628Y-120743636D01*
X154478563Y-120833571D01*
X154478572Y-120833578D01*
X154588724Y-120897175D01*
X154588727Y-120897176D01*
X154588730Y-120897178D01*
X154588731Y-120897178D01*
X154588733Y-120897179D01*
X154663916Y-120917323D01*
X154711599Y-120930100D01*
X154711600Y-120930100D01*
X154838800Y-120930100D01*
X154838801Y-120930100D01*
X154961670Y-120897178D01*
X155071831Y-120833576D01*
X155161776Y-120743631D01*
X155225378Y-120633470D01*
X155258300Y-120510601D01*
X155258300Y-120383399D01*
X155225378Y-120260530D01*
X155225250Y-120260309D01*
X155161778Y-120150372D01*
X155161771Y-120150363D01*
X155115408Y-120104000D01*
X159067300Y-120104000D01*
X159067300Y-120231199D01*
X159067301Y-120231207D01*
X159100220Y-120354066D01*
X159100224Y-120354075D01*
X159163821Y-120464227D01*
X159163828Y-120464236D01*
X159253763Y-120554171D01*
X159253772Y-120554178D01*
X159363924Y-120617775D01*
X159363927Y-120617776D01*
X159363930Y-120617778D01*
X159363931Y-120617778D01*
X159363933Y-120617779D01*
X159422494Y-120633470D01*
X159486799Y-120650700D01*
X159486800Y-120650700D01*
X159614000Y-120650700D01*
X159614001Y-120650700D01*
X159736870Y-120617778D01*
X159847031Y-120554176D01*
X159936976Y-120464231D01*
X159950766Y-120440346D01*
X159988716Y-120411225D01*
X160036142Y-120417468D01*
X160036143Y-120417469D01*
X160075124Y-120439975D01*
X160075127Y-120439976D01*
X160075130Y-120439978D01*
X160075131Y-120439978D01*
X160075133Y-120439979D01*
X160076503Y-120440346D01*
X160197999Y-120472900D01*
X160198000Y-120472900D01*
X160325200Y-120472900D01*
X160325201Y-120472900D01*
X160448070Y-120439978D01*
X160558231Y-120376376D01*
X160602007Y-120332600D01*
X165391900Y-120332600D01*
X165391900Y-120459799D01*
X165391901Y-120459807D01*
X165424820Y-120582666D01*
X165424824Y-120582675D01*
X165488421Y-120692827D01*
X165488428Y-120692836D01*
X165578363Y-120782771D01*
X165578372Y-120782778D01*
X165688524Y-120846375D01*
X165688527Y-120846376D01*
X165688530Y-120846378D01*
X165688531Y-120846378D01*
X165688533Y-120846379D01*
X165763716Y-120866523D01*
X165811399Y-120879300D01*
X165811400Y-120879300D01*
X165938600Y-120879300D01*
X165938601Y-120879300D01*
X166061470Y-120846378D01*
X166171631Y-120782776D01*
X166261576Y-120692831D01*
X166325178Y-120582670D01*
X166358100Y-120459801D01*
X166358100Y-120332599D01*
X166330931Y-120231201D01*
X166325179Y-120209733D01*
X166325175Y-120209724D01*
X166261578Y-120099572D01*
X166261571Y-120099563D01*
X166171636Y-120009628D01*
X166171627Y-120009621D01*
X166061475Y-119946024D01*
X166061466Y-119946020D01*
X165938607Y-119913101D01*
X165938602Y-119913100D01*
X165938601Y-119913100D01*
X165811399Y-119913100D01*
X165811398Y-119913100D01*
X165811392Y-119913101D01*
X165688533Y-119946020D01*
X165688524Y-119946024D01*
X165578372Y-120009621D01*
X165578363Y-120009628D01*
X165488428Y-120099563D01*
X165488421Y-120099572D01*
X165424824Y-120209724D01*
X165424820Y-120209733D01*
X165391901Y-120332592D01*
X165391900Y-120332600D01*
X160602007Y-120332600D01*
X160648176Y-120286431D01*
X160655616Y-120273543D01*
X160693566Y-120244424D01*
X160740992Y-120250666D01*
X160757689Y-120260307D01*
X160760930Y-120262178D01*
X160760933Y-120262179D01*
X160803349Y-120273544D01*
X160883799Y-120295100D01*
X160883800Y-120295100D01*
X161011000Y-120295100D01*
X161011001Y-120295100D01*
X161056138Y-120283005D01*
X161111647Y-120268133D01*
X161133866Y-120262179D01*
X161133865Y-120262179D01*
X161133870Y-120262178D01*
X161244031Y-120198576D01*
X161333976Y-120108631D01*
X161397578Y-119998470D01*
X161430500Y-119875601D01*
X161430500Y-119748399D01*
X161397578Y-119625530D01*
X161378257Y-119592066D01*
X161333978Y-119515372D01*
X161333971Y-119515363D01*
X161244036Y-119425428D01*
X161244027Y-119425421D01*
X161133875Y-119361824D01*
X161133866Y-119361820D01*
X161011007Y-119328901D01*
X161011002Y-119328900D01*
X161011001Y-119328900D01*
X160883799Y-119328900D01*
X160883798Y-119328900D01*
X160883792Y-119328901D01*
X160760933Y-119361820D01*
X160760924Y-119361824D01*
X160650772Y-119425421D01*
X160650763Y-119425428D01*
X160560828Y-119515363D01*
X160560821Y-119515372D01*
X160553382Y-119528257D01*
X160515431Y-119557376D01*
X160468009Y-119551133D01*
X160448071Y-119539622D01*
X160448066Y-119539620D01*
X160325207Y-119506701D01*
X160325202Y-119506700D01*
X160325201Y-119506700D01*
X160197999Y-119506700D01*
X160197998Y-119506700D01*
X160197992Y-119506701D01*
X160075133Y-119539620D01*
X160075124Y-119539624D01*
X159964972Y-119603221D01*
X159964963Y-119603228D01*
X159875028Y-119693163D01*
X159875023Y-119693169D01*
X159861233Y-119717055D01*
X159823282Y-119746175D01*
X159775858Y-119739931D01*
X159736872Y-119717423D01*
X159736866Y-119717420D01*
X159614007Y-119684501D01*
X159614002Y-119684500D01*
X159614001Y-119684500D01*
X159486799Y-119684500D01*
X159486798Y-119684500D01*
X159486792Y-119684501D01*
X159363933Y-119717420D01*
X159363924Y-119717424D01*
X159253772Y-119781021D01*
X159253763Y-119781028D01*
X159163828Y-119870963D01*
X159163821Y-119870972D01*
X159100224Y-119981124D01*
X159100220Y-119981133D01*
X159067301Y-120103992D01*
X159067300Y-120104000D01*
X155115408Y-120104000D01*
X155071836Y-120060428D01*
X155071827Y-120060421D01*
X154961675Y-119996824D01*
X154961666Y-119996820D01*
X154838807Y-119963901D01*
X154838802Y-119963900D01*
X154838801Y-119963900D01*
X154711599Y-119963900D01*
X154711598Y-119963900D01*
X154711592Y-119963901D01*
X154588733Y-119996820D01*
X154588724Y-119996824D01*
X154478572Y-120060421D01*
X154478563Y-120060428D01*
X154388628Y-120150363D01*
X154388621Y-120150372D01*
X154325024Y-120260524D01*
X154325020Y-120260533D01*
X154292101Y-120383392D01*
X154292100Y-120383400D01*
X153571824Y-120383400D01*
X153481562Y-120337409D01*
X153481559Y-120337408D01*
X153293761Y-120276389D01*
X153098744Y-120245501D01*
X153098732Y-120245500D01*
X153098731Y-120245500D01*
X153098729Y-120245500D01*
X152349471Y-120245500D01*
X152305277Y-120227194D01*
X152286971Y-120183000D01*
X152305277Y-120138806D01*
X152341313Y-120121035D01*
X152435531Y-120108631D01*
X153081917Y-120023533D01*
X153521493Y-119946024D01*
X153952394Y-119870045D01*
X154168901Y-119822046D01*
X154815355Y-119678731D01*
X155669146Y-119449958D01*
X156512145Y-119184161D01*
X157342749Y-118881847D01*
X157396940Y-118859400D01*
X170191900Y-118859400D01*
X170191900Y-118986599D01*
X170191901Y-118986607D01*
X170224820Y-119109466D01*
X170224824Y-119109475D01*
X170288421Y-119219627D01*
X170288428Y-119219636D01*
X170378363Y-119309571D01*
X170378372Y-119309578D01*
X170488524Y-119373175D01*
X170488527Y-119373176D01*
X170488530Y-119373178D01*
X170488531Y-119373178D01*
X170488533Y-119373179D01*
X170563716Y-119393323D01*
X170611399Y-119406100D01*
X170611400Y-119406100D01*
X170738600Y-119406100D01*
X170738601Y-119406100D01*
X170861470Y-119373178D01*
X170971631Y-119309576D01*
X171061576Y-119219631D01*
X171125178Y-119109470D01*
X171158100Y-118986601D01*
X171158100Y-118859399D01*
X171125178Y-118736530D01*
X171061576Y-118626369D01*
X171061574Y-118626367D01*
X171061571Y-118626363D01*
X170971636Y-118536428D01*
X170971627Y-118536421D01*
X170861475Y-118472824D01*
X170861466Y-118472820D01*
X170738607Y-118439901D01*
X170738602Y-118439900D01*
X170738601Y-118439900D01*
X170611399Y-118439900D01*
X170611398Y-118439900D01*
X170611392Y-118439901D01*
X170488533Y-118472820D01*
X170488524Y-118472824D01*
X170378372Y-118536421D01*
X170378363Y-118536428D01*
X170288428Y-118626363D01*
X170288421Y-118626372D01*
X170224824Y-118736524D01*
X170224820Y-118736533D01*
X170191901Y-118859392D01*
X170191900Y-118859400D01*
X157396940Y-118859400D01*
X157418539Y-118850453D01*
X157546234Y-118797561D01*
X158159368Y-118543592D01*
X158460952Y-118402961D01*
X158960469Y-118170033D01*
X159744506Y-117761889D01*
X160509994Y-117319934D01*
X160525587Y-117310000D01*
X166611100Y-117310000D01*
X166611100Y-117437199D01*
X166611101Y-117437207D01*
X166644020Y-117560066D01*
X166644024Y-117560075D01*
X166707621Y-117670227D01*
X166707628Y-117670236D01*
X166797563Y-117760171D01*
X166797572Y-117760178D01*
X166907724Y-117823775D01*
X166907727Y-117823776D01*
X166907730Y-117823778D01*
X166907731Y-117823778D01*
X166907733Y-117823779D01*
X166982916Y-117843923D01*
X167030599Y-117856700D01*
X167030600Y-117856700D01*
X167157800Y-117856700D01*
X167157801Y-117856700D01*
X167280670Y-117823778D01*
X167390831Y-117760176D01*
X167480776Y-117670231D01*
X167544378Y-117560070D01*
X167577300Y-117437201D01*
X167577300Y-117309999D01*
X167544378Y-117187130D01*
X167480776Y-117076969D01*
X167480774Y-117076967D01*
X167480771Y-117076963D01*
X167390836Y-116987028D01*
X167390827Y-116987021D01*
X167280675Y-116923424D01*
X167280666Y-116923420D01*
X167157807Y-116890501D01*
X167157802Y-116890500D01*
X167157801Y-116890500D01*
X167030599Y-116890500D01*
X167030598Y-116890500D01*
X167030592Y-116890501D01*
X166907733Y-116923420D01*
X166907724Y-116923424D01*
X166797572Y-116987021D01*
X166797563Y-116987028D01*
X166707628Y-117076963D01*
X166707621Y-117076972D01*
X166644024Y-117187124D01*
X166644020Y-117187133D01*
X166611101Y-117309992D01*
X166611100Y-117310000D01*
X160525587Y-117310000D01*
X161255476Y-116845010D01*
X161979532Y-116338020D01*
X162680785Y-115799930D01*
X163357899Y-115231764D01*
X164009585Y-114634603D01*
X164634603Y-114009585D01*
X165231764Y-113357899D01*
X165799930Y-112680785D01*
X166338020Y-111979532D01*
X166845010Y-111255476D01*
X167319934Y-110509994D01*
X167761889Y-109744506D01*
X168170033Y-108960469D01*
X168543589Y-108159374D01*
X168543592Y-108159368D01*
X168881843Y-107342758D01*
X168881847Y-107342749D01*
X169184161Y-106512145D01*
X169449958Y-105669146D01*
X169678731Y-104815355D01*
X169870044Y-103952397D01*
X169887720Y-103852156D01*
X170023532Y-103081921D01*
X170023533Y-103081917D01*
X170138906Y-102205569D01*
X170155211Y-102019200D01*
X171868900Y-102019200D01*
X171868900Y-102146399D01*
X171868901Y-102146407D01*
X171901820Y-102269266D01*
X171901824Y-102269275D01*
X171965421Y-102379427D01*
X171965428Y-102379436D01*
X172055363Y-102469371D01*
X172055372Y-102469378D01*
X172165524Y-102532975D01*
X172165527Y-102532976D01*
X172165530Y-102532978D01*
X172165531Y-102532978D01*
X172165533Y-102532979D01*
X172240716Y-102553123D01*
X172288399Y-102565900D01*
X172288400Y-102565900D01*
X172415600Y-102565900D01*
X172415601Y-102565900D01*
X172538470Y-102532978D01*
X172648631Y-102469376D01*
X172738576Y-102379431D01*
X172802178Y-102269270D01*
X172835100Y-102146401D01*
X172835100Y-102070000D01*
X174154900Y-102070000D01*
X174154900Y-102197199D01*
X174154901Y-102197207D01*
X174187820Y-102320066D01*
X174187824Y-102320075D01*
X174251421Y-102430227D01*
X174251428Y-102430236D01*
X174341363Y-102520171D01*
X174341372Y-102520178D01*
X174451524Y-102583775D01*
X174451527Y-102583776D01*
X174451530Y-102583778D01*
X174451531Y-102583778D01*
X174451533Y-102583779D01*
X174526716Y-102603923D01*
X174574399Y-102616700D01*
X174574400Y-102616700D01*
X174701600Y-102616700D01*
X174701601Y-102616700D01*
X174824470Y-102583778D01*
X174934631Y-102520176D01*
X175024576Y-102430231D01*
X175088178Y-102320070D01*
X175121100Y-102197201D01*
X175121100Y-102069999D01*
X175088178Y-101947130D01*
X175058848Y-101896330D01*
X175024578Y-101836972D01*
X175024571Y-101836963D01*
X174934636Y-101747028D01*
X174934627Y-101747021D01*
X174824475Y-101683424D01*
X174824466Y-101683420D01*
X174701607Y-101650501D01*
X174701602Y-101650500D01*
X174701601Y-101650500D01*
X174574399Y-101650500D01*
X174574398Y-101650500D01*
X174574392Y-101650501D01*
X174451533Y-101683420D01*
X174451524Y-101683424D01*
X174341372Y-101747021D01*
X174341363Y-101747028D01*
X174251428Y-101836963D01*
X174251421Y-101836972D01*
X174187824Y-101947124D01*
X174187820Y-101947133D01*
X174154901Y-102069992D01*
X174154900Y-102070000D01*
X172835100Y-102070000D01*
X172835100Y-102019199D01*
X172802178Y-101896330D01*
X172767907Y-101836972D01*
X172738578Y-101786172D01*
X172738571Y-101786163D01*
X172648636Y-101696228D01*
X172648627Y-101696221D01*
X172538475Y-101632624D01*
X172538466Y-101632620D01*
X172415607Y-101599701D01*
X172415602Y-101599700D01*
X172415601Y-101599700D01*
X172288399Y-101599700D01*
X172288398Y-101599700D01*
X172288392Y-101599701D01*
X172165533Y-101632620D01*
X172165524Y-101632624D01*
X172055372Y-101696221D01*
X172055363Y-101696228D01*
X171965428Y-101786163D01*
X171965421Y-101786172D01*
X171901824Y-101896324D01*
X171901820Y-101896333D01*
X171868901Y-102019192D01*
X171868900Y-102019200D01*
X170155211Y-102019200D01*
X170215944Y-101325023D01*
X170220416Y-101222600D01*
X177500900Y-101222600D01*
X177500900Y-101349799D01*
X177500901Y-101349807D01*
X177533820Y-101472666D01*
X177533824Y-101472675D01*
X177597421Y-101582827D01*
X177597428Y-101582836D01*
X177687363Y-101672771D01*
X177687372Y-101672778D01*
X177797524Y-101736375D01*
X177797527Y-101736376D01*
X177797530Y-101736378D01*
X177797531Y-101736378D01*
X177797533Y-101736379D01*
X177837251Y-101747021D01*
X177920399Y-101769300D01*
X177920400Y-101769300D01*
X178047600Y-101769300D01*
X178047601Y-101769300D01*
X178170470Y-101736378D01*
X178280631Y-101672776D01*
X178370576Y-101582831D01*
X178434178Y-101472670D01*
X178467100Y-101349801D01*
X178467100Y-101222599D01*
X178434178Y-101099730D01*
X178384454Y-101013607D01*
X178370578Y-100989572D01*
X178370571Y-100989563D01*
X178280636Y-100899628D01*
X178280627Y-100899621D01*
X178170475Y-100836024D01*
X178170466Y-100836020D01*
X178047607Y-100803101D01*
X178047602Y-100803100D01*
X178047601Y-100803100D01*
X177920399Y-100803100D01*
X177920398Y-100803100D01*
X177920392Y-100803101D01*
X177797533Y-100836020D01*
X177797524Y-100836024D01*
X177687372Y-100899621D01*
X177687363Y-100899628D01*
X177597428Y-100989563D01*
X177597421Y-100989572D01*
X177533824Y-101099724D01*
X177533820Y-101099733D01*
X177500901Y-101222592D01*
X177500900Y-101222600D01*
X170220416Y-101222600D01*
X170254500Y-100441955D01*
X170254500Y-99936400D01*
X175424900Y-99936400D01*
X175424900Y-100063599D01*
X175424901Y-100063607D01*
X175457820Y-100186466D01*
X175457824Y-100186475D01*
X175521421Y-100296627D01*
X175521428Y-100296636D01*
X175611363Y-100386571D01*
X175611372Y-100386578D01*
X175721524Y-100450175D01*
X175721527Y-100450176D01*
X175721530Y-100450178D01*
X175721531Y-100450178D01*
X175721533Y-100450179D01*
X175783942Y-100466901D01*
X175844399Y-100483100D01*
X175844400Y-100483100D01*
X175971600Y-100483100D01*
X175971601Y-100483100D01*
X176094470Y-100450178D01*
X176204631Y-100386576D01*
X176294576Y-100296631D01*
X176358178Y-100186470D01*
X176391100Y-100063601D01*
X176391100Y-99936399D01*
X176358178Y-99813530D01*
X176294576Y-99703369D01*
X176294574Y-99703367D01*
X176294571Y-99703363D01*
X176204636Y-99613428D01*
X176204627Y-99613421D01*
X176094475Y-99549824D01*
X176094466Y-99549820D01*
X175971607Y-99516901D01*
X175971602Y-99516900D01*
X175971601Y-99516900D01*
X175844399Y-99516900D01*
X175844398Y-99516900D01*
X175844392Y-99516901D01*
X175721533Y-99549820D01*
X175721524Y-99549824D01*
X175611372Y-99613421D01*
X175611363Y-99613428D01*
X175521428Y-99703363D01*
X175521421Y-99703372D01*
X175457824Y-99813524D01*
X175457820Y-99813533D01*
X175424901Y-99936392D01*
X175424900Y-99936400D01*
X170254500Y-99936400D01*
X170254500Y-99558045D01*
X170229541Y-98986400D01*
X170608900Y-98986400D01*
X170608900Y-99113599D01*
X170608901Y-99113607D01*
X170641820Y-99236466D01*
X170641824Y-99236475D01*
X170705421Y-99346627D01*
X170705428Y-99346636D01*
X170795363Y-99436571D01*
X170795372Y-99436578D01*
X170905524Y-99500175D01*
X170905527Y-99500176D01*
X170905530Y-99500178D01*
X170905531Y-99500178D01*
X170905533Y-99500179D01*
X170967942Y-99516901D01*
X171028399Y-99533100D01*
X171028400Y-99533100D01*
X171155600Y-99533100D01*
X171155601Y-99533100D01*
X171278470Y-99500178D01*
X171388631Y-99436576D01*
X171478576Y-99346631D01*
X171542178Y-99236470D01*
X171575100Y-99113601D01*
X171575100Y-98986399D01*
X171542178Y-98863530D01*
X171478576Y-98753369D01*
X171478574Y-98753367D01*
X171478571Y-98753363D01*
X171388636Y-98663428D01*
X171388627Y-98663421D01*
X171278475Y-98599824D01*
X171278466Y-98599820D01*
X171155607Y-98566901D01*
X171155602Y-98566900D01*
X171155601Y-98566900D01*
X171028399Y-98566900D01*
X171028398Y-98566900D01*
X171028392Y-98566901D01*
X170905533Y-98599820D01*
X170905524Y-98599824D01*
X170795372Y-98663421D01*
X170795363Y-98663428D01*
X170705428Y-98753363D01*
X170705421Y-98753372D01*
X170641824Y-98863524D01*
X170641820Y-98863533D01*
X170608901Y-98986392D01*
X170608900Y-98986400D01*
X170229541Y-98986400D01*
X170215944Y-98674977D01*
X170138906Y-97794431D01*
X170023533Y-96918083D01*
X169913505Y-96294083D01*
X169870045Y-96047605D01*
X169736343Y-95444516D01*
X169678731Y-95184645D01*
X169449958Y-94330854D01*
X169437217Y-94290445D01*
X171589700Y-94290445D01*
X171589700Y-94533554D01*
X171621431Y-94774574D01*
X171621431Y-94774575D01*
X171684344Y-95009371D01*
X171684348Y-95009382D01*
X171684350Y-95009388D01*
X171733868Y-95128935D01*
X171777378Y-95233978D01*
X171777384Y-95233990D01*
X171868543Y-95391883D01*
X171898931Y-95444516D01*
X172046922Y-95637380D01*
X172218820Y-95809278D01*
X172411684Y-95957269D01*
X172622216Y-96078819D01*
X172846812Y-96171850D01*
X172846822Y-96171852D01*
X172846828Y-96171855D01*
X173081625Y-96234768D01*
X173081629Y-96234769D01*
X173322650Y-96266500D01*
X173322656Y-96266500D01*
X173565744Y-96266500D01*
X173565750Y-96266500D01*
X173806771Y-96234769D01*
X173806775Y-96234768D01*
X174041571Y-96171855D01*
X174041574Y-96171853D01*
X174041588Y-96171850D01*
X174266184Y-96078819D01*
X174476716Y-95957269D01*
X174669580Y-95809278D01*
X174841478Y-95637380D01*
X174989469Y-95444516D01*
X175111019Y-95233984D01*
X175204050Y-95009388D01*
X175266969Y-94774571D01*
X175298700Y-94533550D01*
X175298700Y-94290450D01*
X175266969Y-94049429D01*
X175266968Y-94049424D01*
X175204055Y-93814628D01*
X175204052Y-93814622D01*
X175204050Y-93814612D01*
X175111019Y-93590016D01*
X174989469Y-93379484D01*
X174841478Y-93186620D01*
X174669580Y-93014722D01*
X174476716Y-92866731D01*
X174476714Y-92866730D01*
X174476715Y-92866730D01*
X174266190Y-92745184D01*
X174266178Y-92745178D01*
X174161135Y-92701668D01*
X174041588Y-92652150D01*
X174041582Y-92652148D01*
X174041571Y-92652144D01*
X173806774Y-92589231D01*
X173565754Y-92557500D01*
X173565750Y-92557500D01*
X173322650Y-92557500D01*
X173322645Y-92557500D01*
X173081625Y-92589231D01*
X173081624Y-92589231D01*
X172846828Y-92652144D01*
X172846813Y-92652149D01*
X172846812Y-92652150D01*
X172834497Y-92657251D01*
X172622221Y-92745178D01*
X172622209Y-92745184D01*
X172411685Y-92866730D01*
X172218828Y-93014715D01*
X172218815Y-93014726D01*
X172046926Y-93186615D01*
X172046915Y-93186628D01*
X171898930Y-93379485D01*
X171777384Y-93590009D01*
X171777378Y-93590021D01*
X171684351Y-93814610D01*
X171684344Y-93814628D01*
X171621431Y-94049424D01*
X171621431Y-94049425D01*
X171589700Y-94290445D01*
X169437217Y-94290445D01*
X169279045Y-93788789D01*
X169184164Y-93487864D01*
X169184161Y-93487855D01*
X168881847Y-92657251D01*
X168877521Y-92646807D01*
X168543592Y-91840631D01*
X168203657Y-91111638D01*
X168170033Y-91039531D01*
X167763714Y-90259000D01*
X172656300Y-90259000D01*
X172656300Y-90386199D01*
X172656301Y-90386207D01*
X172689220Y-90509066D01*
X172689224Y-90509075D01*
X172752821Y-90619227D01*
X172752828Y-90619236D01*
X172842763Y-90709171D01*
X172842772Y-90709178D01*
X172952924Y-90772775D01*
X172952927Y-90772776D01*
X172952930Y-90772778D01*
X172952931Y-90772778D01*
X172952933Y-90772779D01*
X173028116Y-90792923D01*
X173075799Y-90805700D01*
X173075800Y-90805700D01*
X173203000Y-90805700D01*
X173203001Y-90805700D01*
X173325870Y-90772778D01*
X173436031Y-90709176D01*
X173525976Y-90619231D01*
X173589578Y-90509070D01*
X173622500Y-90386201D01*
X173622500Y-90258999D01*
X173589578Y-90136130D01*
X173525976Y-90025969D01*
X173525974Y-90025967D01*
X173525971Y-90025963D01*
X173436036Y-89936028D01*
X173436027Y-89936021D01*
X173325875Y-89872424D01*
X173325866Y-89872420D01*
X173203007Y-89839501D01*
X173203002Y-89839500D01*
X173203001Y-89839500D01*
X173075799Y-89839500D01*
X173075798Y-89839500D01*
X173075792Y-89839501D01*
X172952933Y-89872420D01*
X172952924Y-89872424D01*
X172842772Y-89936021D01*
X172842763Y-89936028D01*
X172752828Y-90025963D01*
X172752821Y-90025972D01*
X172689224Y-90136124D01*
X172689220Y-90136133D01*
X172656301Y-90258992D01*
X172656300Y-90259000D01*
X167763714Y-90259000D01*
X167761889Y-90255494D01*
X167319934Y-89490006D01*
X166845010Y-88744524D01*
X166518661Y-88278449D01*
X166338024Y-88020473D01*
X166046712Y-87640828D01*
X165799930Y-87319215D01*
X165231764Y-86642101D01*
X164891895Y-86271200D01*
X175018500Y-86271200D01*
X175018500Y-86398399D01*
X175018501Y-86398407D01*
X175051420Y-86521266D01*
X175051424Y-86521275D01*
X175115021Y-86631427D01*
X175115028Y-86631436D01*
X175204963Y-86721371D01*
X175204972Y-86721378D01*
X175315124Y-86784975D01*
X175315127Y-86784976D01*
X175315130Y-86784978D01*
X175315131Y-86784978D01*
X175315133Y-86784979D01*
X175390316Y-86805123D01*
X175437999Y-86817900D01*
X175438000Y-86817900D01*
X175565200Y-86817900D01*
X175565201Y-86817900D01*
X175688070Y-86784978D01*
X175798231Y-86721376D01*
X175888176Y-86631431D01*
X175951778Y-86521270D01*
X175984700Y-86398401D01*
X175984700Y-86271199D01*
X175951778Y-86148330D01*
X175888176Y-86038169D01*
X175888174Y-86038167D01*
X175888171Y-86038163D01*
X175798236Y-85948228D01*
X175798227Y-85948221D01*
X175688075Y-85884624D01*
X175688066Y-85884620D01*
X175565207Y-85851701D01*
X175565202Y-85851700D01*
X175565201Y-85851700D01*
X175437999Y-85851700D01*
X175437998Y-85851700D01*
X175437992Y-85851701D01*
X175315133Y-85884620D01*
X175315124Y-85884624D01*
X175204972Y-85948221D01*
X175204963Y-85948228D01*
X175115028Y-86038163D01*
X175115021Y-86038172D01*
X175051424Y-86148324D01*
X175051420Y-86148333D01*
X175018501Y-86271192D01*
X175018500Y-86271200D01*
X164891895Y-86271200D01*
X164634603Y-85990415D01*
X164009585Y-85365397D01*
X163357899Y-84768236D01*
X162680785Y-84200070D01*
X162363782Y-83956825D01*
X161979526Y-83661975D01*
X161303794Y-83188823D01*
X161255476Y-83154990D01*
X160509994Y-82680066D01*
X159744506Y-82238111D01*
X159744493Y-82238104D01*
X158960474Y-81829969D01*
X158159368Y-81456407D01*
X157342758Y-81118156D01*
X156512135Y-80815835D01*
X155669145Y-80550041D01*
X154815355Y-80321269D01*
X153952394Y-80129954D01*
X153081921Y-79976467D01*
X152205571Y-79861094D01*
X151325038Y-79784057D01*
X151325030Y-79784056D01*
X151325023Y-79784056D01*
X150441955Y-79745500D01*
X149558045Y-79745500D01*
X148674977Y-79784056D01*
X148674970Y-79784056D01*
X148674961Y-79784057D01*
X147794428Y-79861094D01*
X146918078Y-79976467D01*
X146047605Y-80129954D01*
X145184644Y-80321269D01*
X144330854Y-80550041D01*
X143487864Y-80815835D01*
X142657241Y-81118156D01*
X141840631Y-81456407D01*
X141039525Y-81829969D01*
X140255506Y-82238104D01*
X139489997Y-82680071D01*
X138744531Y-83154985D01*
X138020473Y-83661975D01*
X137319204Y-84200078D01*
X136642098Y-84768238D01*
X135990412Y-85365399D01*
X135365399Y-85990412D01*
X134768238Y-86642098D01*
X134200078Y-87319204D01*
X133661975Y-88020473D01*
X133154985Y-88744531D01*
X132680071Y-89489997D01*
X132238104Y-90255506D01*
X131829969Y-91039525D01*
X131456407Y-91840631D01*
X131118156Y-92657241D01*
X130815835Y-93487864D01*
X130550041Y-94330854D01*
X130321269Y-95184644D01*
X130129954Y-96047605D01*
X129976467Y-96918078D01*
X129861094Y-97794428D01*
X129785067Y-98663424D01*
X129784056Y-98674977D01*
X129745500Y-99558045D01*
X124292714Y-99558045D01*
X124278475Y-99549824D01*
X124278466Y-99549820D01*
X124155607Y-99516901D01*
X124155602Y-99516900D01*
X124155601Y-99516900D01*
X124028399Y-99516900D01*
X124028398Y-99516900D01*
X124028392Y-99516901D01*
X123905533Y-99549820D01*
X123905524Y-99549824D01*
X123795372Y-99613421D01*
X123795363Y-99613428D01*
X123705428Y-99703363D01*
X123705421Y-99703372D01*
X123641824Y-99813524D01*
X123641820Y-99813533D01*
X123608901Y-99936392D01*
X123608900Y-99936400D01*
X120259239Y-99936400D01*
X120259239Y-99470183D01*
X120259279Y-99467952D01*
X120259567Y-99459901D01*
X120297100Y-98408974D01*
X120297214Y-98406836D01*
X120372814Y-97349809D01*
X120373006Y-97347671D01*
X120486281Y-96294052D01*
X120486551Y-96291901D01*
X120637365Y-95242970D01*
X120637705Y-95240876D01*
X120825861Y-94197989D01*
X120826275Y-94195910D01*
X121051530Y-93160429D01*
X121052039Y-93158277D01*
X121075516Y-93066298D01*
X121215052Y-92519600D01*
X122821500Y-92519600D01*
X122821500Y-92646799D01*
X122821501Y-92646807D01*
X122854420Y-92769666D01*
X122854424Y-92769675D01*
X122918021Y-92879827D01*
X122918028Y-92879836D01*
X123007963Y-92969771D01*
X123007972Y-92969778D01*
X123118124Y-93033375D01*
X123118127Y-93033376D01*
X123118130Y-93033378D01*
X123118131Y-93033378D01*
X123118133Y-93033379D01*
X123193316Y-93053523D01*
X123240999Y-93066300D01*
X123241000Y-93066300D01*
X123368200Y-93066300D01*
X123368201Y-93066300D01*
X123491070Y-93033378D01*
X123601231Y-92969776D01*
X123691176Y-92879831D01*
X123754778Y-92769670D01*
X123787700Y-92646801D01*
X123787700Y-92519599D01*
X123754778Y-92396730D01*
X123691176Y-92286569D01*
X123691174Y-92286567D01*
X123691171Y-92286563D01*
X123601236Y-92196628D01*
X123601227Y-92196621D01*
X123491075Y-92133024D01*
X123491066Y-92133020D01*
X123368207Y-92100101D01*
X123368202Y-92100100D01*
X123368201Y-92100100D01*
X123240999Y-92100100D01*
X123240998Y-92100100D01*
X123240992Y-92100101D01*
X123118133Y-92133020D01*
X123118124Y-92133024D01*
X123007972Y-92196621D01*
X123007963Y-92196628D01*
X122918028Y-92286563D01*
X122918021Y-92286572D01*
X122854424Y-92396724D01*
X122854420Y-92396733D01*
X122821501Y-92519592D01*
X122821500Y-92519600D01*
X121215052Y-92519600D01*
X121314102Y-92131526D01*
X121314690Y-92129387D01*
X121323289Y-92100101D01*
X121613226Y-91112665D01*
X121613856Y-91110652D01*
X121948535Y-90105102D01*
X121949229Y-90103135D01*
X122319564Y-89110229D01*
X122320367Y-89108190D01*
X122352760Y-89029988D01*
X122509474Y-88651645D01*
X125539500Y-88651645D01*
X125539500Y-88894754D01*
X125571231Y-89135774D01*
X125571231Y-89135775D01*
X125634144Y-89370571D01*
X125634148Y-89370582D01*
X125634150Y-89370588D01*
X125683611Y-89489997D01*
X125727178Y-89595178D01*
X125727181Y-89595184D01*
X125848731Y-89805716D01*
X125996722Y-89998580D01*
X126168620Y-90170478D01*
X126361484Y-90318469D01*
X126572016Y-90440019D01*
X126796612Y-90533050D01*
X126796622Y-90533052D01*
X126796628Y-90533055D01*
X127031425Y-90595968D01*
X127031429Y-90595969D01*
X127272450Y-90627700D01*
X127272456Y-90627700D01*
X127515544Y-90627700D01*
X127515550Y-90627700D01*
X127756571Y-90595969D01*
X127756575Y-90595968D01*
X127991371Y-90533055D01*
X127991374Y-90533053D01*
X127991388Y-90533050D01*
X128215984Y-90440019D01*
X128426516Y-90318469D01*
X128619380Y-90170478D01*
X128791278Y-89998580D01*
X128939269Y-89805716D01*
X129060819Y-89595184D01*
X129153850Y-89370588D01*
X129216769Y-89135771D01*
X129248500Y-88894750D01*
X129248500Y-88651650D01*
X129216769Y-88410629D01*
X129193636Y-88324295D01*
X129153855Y-88175828D01*
X129153852Y-88175822D01*
X129153850Y-88175812D01*
X129060819Y-87951216D01*
X128939269Y-87740684D01*
X128791278Y-87547820D01*
X128619380Y-87375922D01*
X128426516Y-87227931D01*
X128426514Y-87227930D01*
X128426515Y-87227930D01*
X128215990Y-87106384D01*
X128215978Y-87106378D01*
X128110935Y-87062868D01*
X127991388Y-87013350D01*
X127991382Y-87013348D01*
X127991371Y-87013344D01*
X127756574Y-86950431D01*
X127515554Y-86918700D01*
X127515550Y-86918700D01*
X127272450Y-86918700D01*
X127272445Y-86918700D01*
X127031425Y-86950431D01*
X127031424Y-86950431D01*
X126796628Y-87013344D01*
X126796613Y-87013349D01*
X126796612Y-87013350D01*
X126796610Y-87013351D01*
X126572021Y-87106378D01*
X126572009Y-87106384D01*
X126361485Y-87227930D01*
X126168628Y-87375915D01*
X126168615Y-87375926D01*
X125996726Y-87547815D01*
X125996715Y-87547828D01*
X125848730Y-87740685D01*
X125727184Y-87951209D01*
X125727178Y-87951221D01*
X125634151Y-88175810D01*
X125634144Y-88175828D01*
X125571231Y-88410624D01*
X125571231Y-88410625D01*
X125539500Y-88651645D01*
X122509474Y-88651645D01*
X122725882Y-88129190D01*
X122726743Y-88127211D01*
X123166954Y-87163283D01*
X123167892Y-87161321D01*
X123642231Y-86213713D01*
X123643222Y-86211818D01*
X124151087Y-85281734D01*
X124152152Y-85279862D01*
X124692888Y-84368501D01*
X124694034Y-84366646D01*
X125266947Y-83475177D01*
X125268113Y-83473432D01*
X125872488Y-82602966D01*
X125873787Y-82601165D01*
X126145571Y-82238104D01*
X126508814Y-81752867D01*
X126510156Y-81751140D01*
X127175072Y-80926031D01*
X127176461Y-80924369D01*
X127870430Y-80123486D01*
X127871826Y-80121931D01*
X128593953Y-79346312D01*
X128595448Y-79344763D01*
X128678811Y-79261400D01*
X130593900Y-79261400D01*
X130593900Y-79388599D01*
X130593901Y-79388607D01*
X130626820Y-79511466D01*
X130626824Y-79511475D01*
X130690421Y-79621627D01*
X130690428Y-79621636D01*
X130780363Y-79711571D01*
X130780372Y-79711578D01*
X130890524Y-79775175D01*
X130890527Y-79775176D01*
X130890530Y-79775178D01*
X130890531Y-79775178D01*
X130890533Y-79775179D01*
X130965716Y-79795323D01*
X131013399Y-79808100D01*
X131013400Y-79808100D01*
X131140600Y-79808100D01*
X131140601Y-79808100D01*
X131263470Y-79775178D01*
X131373631Y-79711576D01*
X131463576Y-79621631D01*
X131527178Y-79511470D01*
X131560100Y-79388601D01*
X131560100Y-79261399D01*
X131539522Y-79184600D01*
X163563100Y-79184600D01*
X163563100Y-79311799D01*
X163563101Y-79311807D01*
X163596020Y-79434666D01*
X163596024Y-79434675D01*
X163659621Y-79544827D01*
X163659628Y-79544836D01*
X163749563Y-79634771D01*
X163749572Y-79634778D01*
X163859724Y-79698375D01*
X163859727Y-79698376D01*
X163859730Y-79698378D01*
X163859731Y-79698378D01*
X163859733Y-79698379D01*
X163908994Y-79711578D01*
X163982599Y-79731300D01*
X163982600Y-79731300D01*
X164109800Y-79731300D01*
X164109801Y-79731300D01*
X164232670Y-79698378D01*
X164342831Y-79634776D01*
X164432776Y-79544831D01*
X164496378Y-79434670D01*
X164529300Y-79311801D01*
X164529300Y-79261400D01*
X168439900Y-79261400D01*
X168439900Y-79388599D01*
X168439901Y-79388607D01*
X168472820Y-79511466D01*
X168472824Y-79511475D01*
X168536421Y-79621627D01*
X168536428Y-79621636D01*
X168626363Y-79711571D01*
X168626372Y-79711578D01*
X168736524Y-79775175D01*
X168736527Y-79775176D01*
X168736530Y-79775178D01*
X168736531Y-79775178D01*
X168736533Y-79775179D01*
X168811716Y-79795323D01*
X168859399Y-79808100D01*
X168859400Y-79808100D01*
X168986600Y-79808100D01*
X168986601Y-79808100D01*
X169109470Y-79775178D01*
X169219631Y-79711576D01*
X169309576Y-79621631D01*
X169373178Y-79511470D01*
X169406100Y-79388601D01*
X169406100Y-79261399D01*
X169373178Y-79138530D01*
X169309576Y-79028369D01*
X169309574Y-79028367D01*
X169309571Y-79028363D01*
X169219636Y-78938428D01*
X169219627Y-78938421D01*
X169109475Y-78874824D01*
X169109466Y-78874820D01*
X168986607Y-78841901D01*
X168986602Y-78841900D01*
X168986601Y-78841900D01*
X168859399Y-78841900D01*
X168859398Y-78841900D01*
X168859392Y-78841901D01*
X168736533Y-78874820D01*
X168736524Y-78874824D01*
X168626372Y-78938421D01*
X168626363Y-78938428D01*
X168536428Y-79028363D01*
X168536421Y-79028372D01*
X168472824Y-79138524D01*
X168472820Y-79138533D01*
X168439901Y-79261392D01*
X168439900Y-79261400D01*
X164529300Y-79261400D01*
X164529300Y-79184599D01*
X164496378Y-79061730D01*
X164477113Y-79028363D01*
X164432778Y-78951572D01*
X164432771Y-78951563D01*
X164342836Y-78861628D01*
X164342827Y-78861621D01*
X164232675Y-78798024D01*
X164232666Y-78798020D01*
X164109807Y-78765101D01*
X164109802Y-78765100D01*
X164109801Y-78765100D01*
X163982599Y-78765100D01*
X163982598Y-78765100D01*
X163982592Y-78765101D01*
X163859733Y-78798020D01*
X163859724Y-78798024D01*
X163749572Y-78861621D01*
X163749563Y-78861628D01*
X163659628Y-78951563D01*
X163659621Y-78951572D01*
X163596024Y-79061724D01*
X163596020Y-79061733D01*
X163563101Y-79184592D01*
X163563100Y-79184600D01*
X131539522Y-79184600D01*
X131527178Y-79138530D01*
X131463576Y-79028369D01*
X131463574Y-79028367D01*
X131463571Y-79028363D01*
X131373636Y-78938428D01*
X131373627Y-78938421D01*
X131263475Y-78874824D01*
X131263466Y-78874820D01*
X131140607Y-78841901D01*
X131140602Y-78841900D01*
X131140601Y-78841900D01*
X131013399Y-78841900D01*
X131013398Y-78841900D01*
X131013392Y-78841901D01*
X130890533Y-78874820D01*
X130890524Y-78874824D01*
X130780372Y-78938421D01*
X130780363Y-78938428D01*
X130690428Y-79028363D01*
X130690421Y-79028372D01*
X130626824Y-79138524D01*
X130626820Y-79138533D01*
X130593901Y-79261392D01*
X130593900Y-79261400D01*
X128678811Y-79261400D01*
X129344763Y-78595448D01*
X129346312Y-78593953D01*
X130121931Y-77871826D01*
X130123486Y-77870430D01*
X130924369Y-77176461D01*
X130926031Y-77175072D01*
X131751140Y-76510156D01*
X131752867Y-76508814D01*
X132419739Y-76009600D01*
X162191500Y-76009600D01*
X162191500Y-76136799D01*
X162191501Y-76136807D01*
X162224420Y-76259666D01*
X162224424Y-76259675D01*
X162288021Y-76369827D01*
X162288028Y-76369836D01*
X162377963Y-76459771D01*
X162377972Y-76459778D01*
X162488124Y-76523375D01*
X162488127Y-76523376D01*
X162488130Y-76523378D01*
X162488131Y-76523378D01*
X162488133Y-76523379D01*
X162563316Y-76543523D01*
X162610999Y-76556300D01*
X162611000Y-76556300D01*
X162738200Y-76556300D01*
X162738201Y-76556300D01*
X162861070Y-76523378D01*
X162971231Y-76459776D01*
X163061176Y-76369831D01*
X163124778Y-76259670D01*
X163157700Y-76136801D01*
X163157700Y-76009599D01*
X163124778Y-75886730D01*
X163117305Y-75873787D01*
X163061178Y-75776572D01*
X163061171Y-75776563D01*
X162971236Y-75686628D01*
X162971227Y-75686621D01*
X162861075Y-75623024D01*
X162861066Y-75623020D01*
X162738207Y-75590101D01*
X162738202Y-75590100D01*
X162738201Y-75590100D01*
X162610999Y-75590100D01*
X162610998Y-75590100D01*
X162610992Y-75590101D01*
X162488133Y-75623020D01*
X162488124Y-75623024D01*
X162377972Y-75686621D01*
X162377963Y-75686628D01*
X162288028Y-75776563D01*
X162288021Y-75776572D01*
X162224424Y-75886724D01*
X162224420Y-75886733D01*
X162191501Y-76009592D01*
X162191500Y-76009600D01*
X132419739Y-76009600D01*
X132601173Y-75873780D01*
X132602975Y-75872482D01*
X132741112Y-75776572D01*
X133473432Y-75268113D01*
X133475177Y-75266947D01*
X134366646Y-74694034D01*
X134368501Y-74692888D01*
X135279862Y-74152152D01*
X135281734Y-74151087D01*
X136211818Y-73643222D01*
X136213713Y-73642231D01*
X137161321Y-73167892D01*
X137163283Y-73166954D01*
X138127211Y-72726743D01*
X138129190Y-72725882D01*
X139108209Y-72320359D01*
X139110229Y-72319564D01*
X140103136Y-71949229D01*
X140105085Y-71948541D01*
X140189635Y-71920400D01*
X148230700Y-71920400D01*
X148230700Y-72047599D01*
X148230701Y-72047607D01*
X148263620Y-72170466D01*
X148263624Y-72170475D01*
X148327221Y-72280627D01*
X148327228Y-72280636D01*
X148417163Y-72370571D01*
X148417172Y-72370578D01*
X148527324Y-72434175D01*
X148527327Y-72434176D01*
X148527330Y-72434178D01*
X148527331Y-72434178D01*
X148527333Y-72434179D01*
X148602516Y-72454323D01*
X148650199Y-72467100D01*
X148650200Y-72467100D01*
X148777400Y-72467100D01*
X148777401Y-72467100D01*
X148900270Y-72434178D01*
X149010431Y-72370576D01*
X149100376Y-72280631D01*
X149163978Y-72170470D01*
X149196900Y-72047601D01*
X149196900Y-71920399D01*
X149163978Y-71797530D01*
X149100376Y-71687369D01*
X149100374Y-71687367D01*
X149100371Y-71687363D01*
X149010436Y-71597428D01*
X149010427Y-71597421D01*
X148900275Y-71533824D01*
X148900266Y-71533820D01*
X148777407Y-71500901D01*
X148777402Y-71500900D01*
X148777401Y-71500900D01*
X148650199Y-71500900D01*
X148650198Y-71500900D01*
X148650192Y-71500901D01*
X148527333Y-71533820D01*
X148527324Y-71533824D01*
X148417172Y-71597421D01*
X148417163Y-71597428D01*
X148327228Y-71687363D01*
X148327221Y-71687372D01*
X148263624Y-71797524D01*
X148263620Y-71797533D01*
X148230701Y-71920392D01*
X148230700Y-71920400D01*
X140189635Y-71920400D01*
X141110652Y-71613856D01*
X141112665Y-71613226D01*
X142129399Y-71314686D01*
X142131526Y-71314102D01*
X143158296Y-71052034D01*
X143160429Y-71051530D01*
X144195910Y-70826275D01*
X144197989Y-70825861D01*
X145240876Y-70637705D01*
X145242970Y-70637365D01*
X146291901Y-70486551D01*
X146294052Y-70486281D01*
X147347671Y-70373006D01*
X147349809Y-70372814D01*
X148406836Y-70297214D01*
X148408974Y-70297100D01*
X149467952Y-70259278D01*
X149470183Y-70259239D01*
X150529817Y-70259239D01*
X150532047Y-70259278D01*
G37*
%TD.AperFunction*%
%TD*%
M02*
