M48
; DRILL file KiCad 10.0.5 date 2026-09-24T00:34:21
; FORMAT={-:-/ absolute / metric / decimal}
; #@! TF.CreationDate,2026-09-24T00:34:21-07:00
; #@! TF.GenerationSoftware,Kicad,Pcbnew,10.0.5
; #@! TF.FileFunction,Plated,1,4,PTH
FMAT,2
METRIC
; #@! TA.AperFunction,Plated,PTH,ViaDrill
T1C0.254
%
G90
G05
T1
X121.984Y-101.286
X123.305Y-92.583
X124.092Y-100.0
X128.908Y-100.0
X128.908Y-100.95
X129.324Y-109.042
X129.325Y-118.923
X131.077Y-79.325
X136.868Y-119.964
X138.738Y-126.118
X139.586Y-123.241
X140.238Y-127.118
X140.246Y-118.136
X141.999Y-119.406
X142.82Y-126.501
X143.863Y-120.71
X144.412Y-128.473
X148.714Y-71.984
X148.984Y-129.286
X150.381Y-123.114
X150.381Y-123.774
X152.591Y-123.114
X152.591Y-123.774
X153.277Y-128.0
X154.775Y-120.447
X155.476Y-127.76
X156.19Y-128.024
X156.426Y-123.241
X157.036Y-124.587
X158.515Y-127.234
X159.55Y-120.168
X159.931Y-125.654
X160.262Y-119.99
X160.947Y-119.812
X161.481Y-117.526
X162.675Y-76.073
X164.046Y-79.248
X165.24Y-75.057
X165.392Y-121.488
X165.875Y-120.396
X165.921Y-123.024
X166.688Y-76.657
X167.094Y-117.374
X167.882Y-80.34
X167.983Y-83.287
X168.11Y-82.042
X168.923Y-79.325
X170.675Y-118.923
X171.092Y-99.05
X172.352Y-102.083
X172.962Y-82.728
X173.139Y-90.323
X174.638Y-102.134
X175.502Y-86.335
X175.908Y-100.0
X176.361Y-88.177
X177.984Y-101.286
M30
