%TF.GenerationSoftware,KiCad,Pcbnew,10.0.5*%
%TF.CreationDate,2026-09-24T00:34:11-07:00*%
%TF.ProjectId,Coin Cell Battery Charger,436f696e-2043-4656-9c6c-204261747465,rev?*%
%TF.SameCoordinates,Original*%
%TF.FileFunction,Legend,Top*%
%TF.FilePolarity,Positive*%
%FSLAX46Y46*%
G04 Gerber Fmt 4.6, Leading zero omitted, Abs format (unit mm)*
G04 Created by KiCad (PCBNEW 10.0.5) date 2026-09-24 00:34:11*
%MOMM*%
%LPD*%
G01*
G04 APERTURE LIST*
%ADD10C,0.203200*%
%ADD11C,0.250000*%
%ADD12C,0.190500*%
%ADD13C,0.100000*%
%ADD14C,0.200000*%
%ADD15C,0.120000*%
G04 APERTURE END LIST*
D10*
G36*
X140972354Y-78521439D02*
G01*
X140614552Y-78525394D01*
X140627580Y-78465838D01*
X140825325Y-78408492D01*
X140853668Y-78393504D01*
X140866968Y-78368128D01*
X140919079Y-78115480D01*
X141166261Y-76813154D01*
X140727732Y-76813154D01*
X140546853Y-77164210D01*
X140490903Y-77173399D01*
X140541619Y-76706721D01*
X140552088Y-76696252D01*
X141162422Y-76701486D01*
X141477302Y-76701486D01*
X142095430Y-76696252D01*
X142101944Y-76706721D01*
X141937932Y-77164326D01*
X141884657Y-77173399D01*
X141859881Y-76813154D01*
X141416117Y-76813154D01*
X141168936Y-78115480D01*
X141122059Y-78368128D01*
X141126847Y-78393763D01*
X141149394Y-78408492D01*
X141336787Y-78465838D01*
X141328993Y-78525394D01*
X140972354Y-78521439D01*
G37*
G36*
X141992370Y-78523533D02*
G01*
X142360641Y-76735219D01*
X142165455Y-76701486D01*
X142165455Y-76656819D01*
X142615732Y-76560040D01*
X142626085Y-76575627D01*
X142570833Y-76825833D01*
X142502552Y-77159208D01*
X142438692Y-77456872D01*
X142573144Y-77381839D01*
X142692101Y-77332778D01*
X142797928Y-77305578D01*
X142892924Y-77297048D01*
X142982070Y-77306072D01*
X143051023Y-77330864D01*
X143104395Y-77369865D01*
X143144363Y-77422594D01*
X143169103Y-77487321D01*
X143177910Y-77567493D01*
X143164882Y-77687071D01*
X143030881Y-78304734D01*
X143026926Y-78330790D01*
X143025646Y-78351495D01*
X143036773Y-78395273D01*
X143068569Y-78419891D01*
X143119028Y-78431130D01*
X143214318Y-78436060D01*
X143210480Y-78486194D01*
X143051278Y-78528798D01*
X142947595Y-78540283D01*
X142878457Y-78530239D01*
X142831740Y-78503293D01*
X142802436Y-78458765D01*
X142791377Y-78388485D01*
X142803125Y-78297638D01*
X142925378Y-77735926D01*
X142938406Y-77633331D01*
X142927213Y-77558417D01*
X142896763Y-77506309D01*
X142865780Y-77482594D01*
X142821004Y-77466820D01*
X142757527Y-77460827D01*
X142655038Y-77471436D01*
X142542699Y-77505143D01*
X142417871Y-77565981D01*
X142222685Y-78510505D01*
X141992370Y-78523533D01*
G37*
G36*
X144269075Y-77305771D02*
G01*
X144348972Y-77329372D01*
X144409513Y-77365444D01*
X144457089Y-77416035D01*
X144485118Y-77474783D01*
X144494776Y-77544462D01*
X144485290Y-77617404D01*
X144458394Y-77682011D01*
X144413088Y-77740487D01*
X144346080Y-77793913D01*
X144252131Y-77842126D01*
X144088422Y-77897181D01*
X143903944Y-77934395D01*
X143695770Y-77952166D01*
X143690535Y-78038476D01*
X143700777Y-78146454D01*
X143728811Y-78229924D01*
X143772541Y-78294381D01*
X143832648Y-78342937D01*
X143908330Y-78373119D01*
X144004252Y-78383948D01*
X144115802Y-78374128D01*
X144231494Y-78343812D01*
X144352981Y-78290892D01*
X144381596Y-78336489D01*
X144282804Y-78421061D01*
X144155818Y-78489684D01*
X144017422Y-78533556D01*
X143883162Y-78547728D01*
X143787080Y-78538984D01*
X143703755Y-78513898D01*
X143630733Y-78473092D01*
X143566305Y-78415704D01*
X143514627Y-78346451D01*
X143477258Y-78267691D01*
X143454039Y-78177637D01*
X143445913Y-78073954D01*
X143452301Y-77971088D01*
X143471271Y-77872254D01*
X143476711Y-77855387D01*
X143710077Y-77855387D01*
X143894765Y-77833908D01*
X144030023Y-77800349D01*
X144126505Y-77758259D01*
X144191058Y-77712744D01*
X144233338Y-77664377D01*
X144257615Y-77612430D01*
X144265741Y-77555047D01*
X144254815Y-77492554D01*
X144224098Y-77447567D01*
X144176652Y-77419013D01*
X144110918Y-77408716D01*
X144027380Y-77421267D01*
X143947338Y-77459749D01*
X143868157Y-77528526D01*
X143804332Y-77613758D01*
X143751283Y-77721264D01*
X143710077Y-77855387D01*
X143476711Y-77855387D01*
X143501952Y-77777119D01*
X143542808Y-77688118D01*
X143593743Y-77605138D01*
X143653429Y-77530038D01*
X143721851Y-77463227D01*
X143797899Y-77406389D01*
X143880882Y-77360212D01*
X143970286Y-77325663D01*
X144064469Y-77304285D01*
X144164309Y-77297048D01*
X144269075Y-77305771D01*
G37*
G36*
X145705442Y-78118853D02*
G01*
X145659844Y-78370920D01*
X145664457Y-78396684D01*
X145685900Y-78411283D01*
X145865499Y-78465838D01*
X145856310Y-78525394D01*
X145510256Y-78521439D01*
X145191421Y-78525394D01*
X145196539Y-78465838D01*
X145359271Y-78417681D01*
X145389914Y-78401748D01*
X145403473Y-78377434D01*
X145455585Y-78118737D01*
X145657285Y-77064290D01*
X145679386Y-76944713D01*
X145694973Y-76848515D01*
X145692488Y-76820116D01*
X145672872Y-76804314D01*
X145515374Y-76753598D01*
X145523167Y-76694042D01*
X145849912Y-76699276D01*
X146136177Y-76699276D01*
X146753025Y-76694042D01*
X146759539Y-76704510D01*
X146612394Y-77107213D01*
X146557839Y-77116286D01*
X146533063Y-76813154D01*
X145954019Y-76813154D01*
X145812108Y-77565051D01*
X145908421Y-77565051D01*
X146211669Y-77563771D01*
X146241558Y-77553734D01*
X146261105Y-77528642D01*
X146348230Y-77351602D01*
X146412090Y-77349043D01*
X146357419Y-77617162D01*
X146310542Y-77881327D01*
X146246798Y-77886561D01*
X146225977Y-77706962D01*
X146214653Y-77680663D01*
X146193407Y-77671833D01*
X145886320Y-77669274D01*
X145791286Y-77669274D01*
X145705442Y-78118853D01*
G37*
G36*
X147653696Y-77341715D02*
G01*
X147886687Y-77327408D01*
X147691501Y-78269954D01*
X147681032Y-78342538D01*
X147691951Y-78391595D01*
X147721977Y-78419310D01*
X147771375Y-78432203D01*
X147869704Y-78436060D01*
X147865865Y-78486194D01*
X147708511Y-78529271D01*
X147617288Y-78540283D01*
X147548033Y-78528955D01*
X147497478Y-78497244D01*
X147465276Y-78446325D01*
X147453276Y-78369175D01*
X147454672Y-78321600D01*
X147322785Y-78431165D01*
X147210368Y-78499848D01*
X147113710Y-78536513D01*
X147029054Y-78547728D01*
X146934920Y-78537011D01*
X146860992Y-78507180D01*
X146802578Y-78459208D01*
X146760063Y-78395763D01*
X146733038Y-78315338D01*
X146723247Y-78213189D01*
X146727320Y-78141872D01*
X146740230Y-78062205D01*
X146848176Y-77540158D01*
X146855388Y-77501772D01*
X146858645Y-77472459D01*
X146850984Y-77444473D01*
X146827354Y-77424419D01*
X146784927Y-77413978D01*
X146673811Y-77408716D01*
X146679046Y-77358233D01*
X146846124Y-77310073D01*
X146956238Y-77297048D01*
X147017396Y-77305351D01*
X147059647Y-77327640D01*
X147086712Y-77364923D01*
X147096753Y-77423256D01*
X147091519Y-77476531D01*
X146962752Y-78060693D01*
X146949724Y-78166080D01*
X146955975Y-78230142D01*
X146973062Y-78279338D01*
X146999742Y-78317064D01*
X147036346Y-78344973D01*
X147083662Y-78362638D01*
X147144910Y-78369059D01*
X147225209Y-78355541D01*
X147331455Y-78307755D01*
X147472818Y-78211096D01*
X147653696Y-77341715D01*
G37*
G36*
X148597755Y-77460827D02*
G01*
X148505978Y-77850385D01*
X148438977Y-78155262D01*
X148423390Y-78273676D01*
X148434751Y-78331991D01*
X148466894Y-78372549D01*
X148517628Y-78396754D01*
X148599034Y-78406282D01*
X148686045Y-78399695D01*
X148808528Y-78376387D01*
X148816321Y-78434664D01*
X148720766Y-78478151D01*
X148615319Y-78512017D01*
X148508210Y-78533565D01*
X148414201Y-78540283D01*
X148340477Y-78533624D01*
X148284347Y-78515555D01*
X148241814Y-78487706D01*
X148209885Y-78448836D01*
X148189859Y-78398660D01*
X148182606Y-78333698D01*
X148194355Y-78227264D01*
X148259378Y-77914245D01*
X148363485Y-77456872D01*
X148190400Y-77417207D01*
X148193075Y-77360210D01*
X148406407Y-77341715D01*
X148545643Y-77014505D01*
X148691393Y-76975305D01*
X148701862Y-76984378D01*
X148619856Y-77341715D01*
X148988127Y-77341715D01*
X148962071Y-77460827D01*
X148597755Y-77460827D01*
G37*
G36*
X150095500Y-77341715D02*
G01*
X150328490Y-77327408D01*
X150133304Y-78269954D01*
X150122835Y-78342538D01*
X150133754Y-78391595D01*
X150163780Y-78419310D01*
X150213179Y-78432203D01*
X150311507Y-78436060D01*
X150307668Y-78486194D01*
X150150314Y-78529271D01*
X150059091Y-78540283D01*
X149989836Y-78528955D01*
X149939281Y-78497244D01*
X149907079Y-78446325D01*
X149895079Y-78369175D01*
X149896475Y-78321600D01*
X149764588Y-78431165D01*
X149652172Y-78499848D01*
X149555513Y-78536513D01*
X149470858Y-78547728D01*
X149376723Y-78537011D01*
X149302795Y-78507180D01*
X149244381Y-78459208D01*
X149201866Y-78395763D01*
X149174842Y-78315338D01*
X149165051Y-78213189D01*
X149169123Y-78141872D01*
X149182033Y-78062205D01*
X149289979Y-77540158D01*
X149297191Y-77501772D01*
X149300448Y-77472459D01*
X149292787Y-77444473D01*
X149269158Y-77424419D01*
X149226730Y-77413978D01*
X149115614Y-77408716D01*
X149120849Y-77358233D01*
X149287927Y-77310073D01*
X149398041Y-77297048D01*
X149459199Y-77305351D01*
X149501450Y-77327640D01*
X149528515Y-77364923D01*
X149538556Y-77423256D01*
X149533322Y-77476531D01*
X149404555Y-78060693D01*
X149391527Y-78166080D01*
X149397778Y-78230142D01*
X149414866Y-78279338D01*
X149441545Y-78317064D01*
X149478149Y-78344973D01*
X149525465Y-78362638D01*
X149586713Y-78369059D01*
X149667012Y-78355541D01*
X149773259Y-78307755D01*
X149914621Y-78211096D01*
X150095500Y-77341715D01*
G37*
G36*
X150588001Y-78523533D02*
G01*
X150790981Y-77542484D01*
X150801450Y-77472343D01*
X150793837Y-77442328D01*
X150771439Y-77423023D01*
X150730062Y-77413561D01*
X150617896Y-77408716D01*
X150621850Y-77358233D01*
X150788929Y-77310073D01*
X150899043Y-77297048D01*
X150958918Y-77305757D01*
X151001172Y-77329501D01*
X151028584Y-77367318D01*
X151038278Y-77420115D01*
X151035603Y-77457105D01*
X151175559Y-77381774D01*
X151298396Y-77332652D01*
X151406675Y-77305520D01*
X151502863Y-77297048D01*
X151509377Y-77306121D01*
X151426091Y-77713592D01*
X151373980Y-77721386D01*
X151340013Y-77608311D01*
X151310236Y-77548184D01*
X151284015Y-77521021D01*
X151248606Y-77504182D01*
X151200895Y-77498050D01*
X151123018Y-77510157D01*
X151017457Y-77553186D01*
X150822271Y-78510505D01*
X150588001Y-78523533D01*
G37*
G36*
X152376160Y-77305771D02*
G01*
X152456057Y-77329372D01*
X152516598Y-77365444D01*
X152564174Y-77416035D01*
X152592203Y-77474783D01*
X152601861Y-77544462D01*
X152592375Y-77617404D01*
X152565479Y-77682011D01*
X152520173Y-77740487D01*
X152453165Y-77793913D01*
X152359216Y-77842126D01*
X152195506Y-77897181D01*
X152011029Y-77934395D01*
X151802854Y-77952166D01*
X151797620Y-78038476D01*
X151807861Y-78146454D01*
X151835896Y-78229924D01*
X151879626Y-78294381D01*
X151939733Y-78342937D01*
X152015415Y-78373119D01*
X152111336Y-78383948D01*
X152222886Y-78374128D01*
X152338578Y-78343812D01*
X152460066Y-78290892D01*
X152488681Y-78336489D01*
X152389888Y-78421061D01*
X152262902Y-78489684D01*
X152124506Y-78533556D01*
X151990247Y-78547728D01*
X151894165Y-78538984D01*
X151810839Y-78513898D01*
X151737817Y-78473092D01*
X151673389Y-78415704D01*
X151621712Y-78346451D01*
X151584342Y-78267691D01*
X151561123Y-78177637D01*
X151552997Y-78073954D01*
X151559386Y-77971088D01*
X151578355Y-77872254D01*
X151583795Y-77855387D01*
X151817162Y-77855387D01*
X152001849Y-77833908D01*
X152137107Y-77800349D01*
X152233589Y-77758259D01*
X152298142Y-77712744D01*
X152340422Y-77664377D01*
X152364699Y-77612430D01*
X152372825Y-77555047D01*
X152361900Y-77492554D01*
X152331183Y-77447567D01*
X152283737Y-77419013D01*
X152218003Y-77408716D01*
X152134464Y-77421267D01*
X152054423Y-77459749D01*
X151975241Y-77528526D01*
X151911417Y-77613758D01*
X151858367Y-77721264D01*
X151817162Y-77855387D01*
X151583795Y-77855387D01*
X151609037Y-77777119D01*
X151649892Y-77688118D01*
X151700828Y-77605138D01*
X151760513Y-77530038D01*
X151828936Y-77463227D01*
X151904984Y-77406389D01*
X151987967Y-77360212D01*
X152077371Y-77325663D01*
X152171554Y-77304285D01*
X152271394Y-77297048D01*
X152376160Y-77305771D01*
G37*
G36*
X153673290Y-78304385D02*
G01*
X153666776Y-78351378D01*
X153677903Y-78395156D01*
X153709699Y-78419775D01*
X153760161Y-78431095D01*
X153855448Y-78436060D01*
X153851493Y-78486194D01*
X153690395Y-78528919D01*
X153588609Y-78540283D01*
X153521755Y-78530193D01*
X153474731Y-78502595D01*
X153444912Y-78457581D01*
X153433786Y-78388252D01*
X153444255Y-78297289D01*
X153600357Y-77539925D01*
X153607569Y-77501656D01*
X153610826Y-77472343D01*
X153603214Y-77442328D01*
X153580815Y-77423023D01*
X153539438Y-77413561D01*
X153427272Y-77408716D01*
X153431227Y-77358233D01*
X153600209Y-77309941D01*
X153708419Y-77297048D01*
X153769567Y-77305379D01*
X153811828Y-77327757D01*
X153838889Y-77365055D01*
X153848934Y-77423488D01*
X153843700Y-77476880D01*
X153673290Y-78304385D01*
G37*
G36*
X153962114Y-76825251D02*
G01*
X153951349Y-76887300D01*
X153920472Y-76934825D01*
X153873982Y-76966261D01*
X153816365Y-76976933D01*
X153759985Y-76966819D01*
X153715515Y-76937384D01*
X153686038Y-76892857D01*
X153675849Y-76835604D01*
X153686730Y-76772889D01*
X153717492Y-76726844D01*
X153764010Y-76696909D01*
X153822879Y-76686597D01*
X153879346Y-76696157D01*
X153923031Y-76723587D01*
X153951859Y-76766199D01*
X153962114Y-76825251D01*
G37*
G36*
X154851386Y-77430584D02*
G01*
X154778128Y-77414486D01*
X154690049Y-77408716D01*
X154603783Y-77415265D01*
X154533389Y-77433457D01*
X154475903Y-77461874D01*
X154428784Y-77502400D01*
X154402225Y-77548012D01*
X154393315Y-77600877D01*
X154399216Y-77646625D01*
X154416114Y-77684396D01*
X154442113Y-77717240D01*
X154475903Y-77746976D01*
X154561747Y-77795831D01*
X154662714Y-77839567D01*
X154773916Y-77891097D01*
X154872789Y-77953678D01*
X154912303Y-77992637D01*
X154943047Y-78037196D01*
X154962739Y-78088249D01*
X154969800Y-78152586D01*
X154959991Y-78240707D01*
X154931670Y-78316710D01*
X154884744Y-78383327D01*
X154816839Y-78442108D01*
X154710074Y-78498761D01*
X154579862Y-78534797D01*
X154420650Y-78547728D01*
X154287813Y-78538586D01*
X154155893Y-78511020D01*
X154023764Y-78464326D01*
X154101816Y-78129090D01*
X154152531Y-78120017D01*
X154235817Y-78407678D01*
X154330170Y-78428679D01*
X154438913Y-78436060D01*
X154522329Y-78429250D01*
X154589543Y-78410392D01*
X154643753Y-78380924D01*
X154686942Y-78339195D01*
X154712391Y-78289207D01*
X154721223Y-78228195D01*
X154715859Y-78188679D01*
X154700402Y-78155843D01*
X154645731Y-78100358D01*
X154567680Y-78054063D01*
X154475321Y-78011722D01*
X154367259Y-77960890D01*
X154271644Y-77895634D01*
X154233356Y-77854419D01*
X154202666Y-77805718D01*
X154183064Y-77750026D01*
X154176028Y-77680441D01*
X154185703Y-77595740D01*
X154213730Y-77522335D01*
X154260396Y-77457604D01*
X154328292Y-77400108D01*
X154434475Y-77344826D01*
X154563663Y-77309659D01*
X154721223Y-77297048D01*
X154838137Y-77303900D01*
X154951517Y-77324313D01*
X155062159Y-77358349D01*
X154988063Y-77679278D01*
X154937230Y-77688351D01*
X154851386Y-77430584D01*
G37*
G36*
X156491391Y-77059637D02*
G01*
X156290970Y-78118504D01*
X156238859Y-78406282D01*
X156856987Y-78406282D01*
X157078228Y-78059413D01*
X157142089Y-78048945D01*
X157031468Y-78516205D01*
X157022278Y-78525394D01*
X156440559Y-78521439D01*
X156094505Y-78521439D01*
X155775670Y-78525394D01*
X155780788Y-78465838D01*
X155943520Y-78417681D01*
X155972471Y-78402775D01*
X155987722Y-78377434D01*
X156011103Y-78261113D01*
X156039834Y-78118737D01*
X156241534Y-77064290D01*
X156263635Y-76944713D01*
X156279222Y-76848515D01*
X156276737Y-76820116D01*
X156257121Y-76804314D01*
X156099623Y-76753598D01*
X156107416Y-76694042D01*
X156434161Y-76699276D01*
X156749041Y-76694042D01*
X156742527Y-76753598D01*
X156577235Y-76801755D01*
X156550860Y-76815742D01*
X156536872Y-76842118D01*
X156508257Y-76975072D01*
X156491391Y-77059637D01*
G37*
G36*
X157743234Y-78118737D02*
G01*
X157716480Y-78260416D01*
X157696356Y-78376155D01*
X157702791Y-78402565D01*
X157732765Y-78420356D01*
X157878515Y-78465838D01*
X157869442Y-78525394D01*
X157549327Y-78521439D01*
X157229213Y-78525394D01*
X157234331Y-78465838D01*
X157397063Y-78417681D01*
X157426014Y-78402775D01*
X157441265Y-78377434D01*
X157464646Y-78261113D01*
X157493377Y-78118737D01*
X157695077Y-77064290D01*
X157717178Y-76944713D01*
X157732765Y-76848515D01*
X157730280Y-76820116D01*
X157710664Y-76804314D01*
X157553166Y-76753598D01*
X157560959Y-76694042D01*
X157886308Y-76699276D01*
X158202584Y-76694042D01*
X158196070Y-76753598D01*
X158030778Y-76801755D01*
X158004393Y-76815723D01*
X157990415Y-76842001D01*
X157968314Y-76941456D01*
X157944934Y-77059172D01*
X157743234Y-78118737D01*
G37*
G36*
X158800123Y-78521439D02*
G01*
X158442321Y-78525394D01*
X158455349Y-78465838D01*
X158653094Y-78408492D01*
X158681437Y-78393504D01*
X158694737Y-78368128D01*
X158746848Y-78115480D01*
X158994030Y-76813154D01*
X158555501Y-76813154D01*
X158374622Y-77164210D01*
X158318672Y-77173399D01*
X158369388Y-76706721D01*
X158379857Y-76696252D01*
X158990191Y-76701486D01*
X159305071Y-76701486D01*
X159923199Y-76696252D01*
X159929713Y-76706721D01*
X159765701Y-77164326D01*
X159712426Y-77173399D01*
X159687650Y-76813154D01*
X159243886Y-76813154D01*
X158996705Y-78115480D01*
X158949828Y-78368128D01*
X158954616Y-78393763D01*
X158977163Y-78408492D01*
X159164556Y-78465838D01*
X159156762Y-78525394D01*
X158800123Y-78521439D01*
G37*
D11*
G36*
X138983154Y-76206550D02*
G01*
X138983154Y-74337974D01*
X139545332Y-74337974D01*
X139545332Y-75767323D01*
X140188236Y-75767323D01*
X140188236Y-76206550D01*
X138983154Y-76206550D01*
G37*
G36*
X140425530Y-76206550D02*
G01*
X140425530Y-74337974D01*
X140987708Y-74337974D01*
X140987708Y-76206550D01*
X140425530Y-76206550D01*
G37*
G36*
X142297711Y-74777201D02*
G01*
X142297711Y-76206550D01*
X141732974Y-76206550D01*
X141732974Y-74777201D01*
X141211160Y-74777201D01*
X141211160Y-74337974D01*
X142826156Y-74337974D01*
X142826156Y-74777201D01*
X142297711Y-74777201D01*
G37*
G36*
X145179090Y-76153507D02*
G01*
X145022499Y-76198249D01*
X144845192Y-76226441D01*
X144644248Y-76236328D01*
X144448173Y-76222767D01*
X144278167Y-76184171D01*
X144130111Y-76122566D01*
X144027598Y-76059027D01*
X143939187Y-75984315D01*
X143863634Y-75897928D01*
X143800225Y-75798846D01*
X143738014Y-75654906D01*
X143699648Y-75494518D01*
X143686347Y-75314486D01*
X143694723Y-75167473D01*
X143719135Y-75031893D01*
X143758892Y-74906264D01*
X143813835Y-74789299D01*
X143884529Y-74680335D01*
X143967647Y-74585409D01*
X144063848Y-74503399D01*
X144174312Y-74433706D01*
X144292503Y-74379813D01*
X144420331Y-74340646D01*
X144559159Y-74316505D01*
X144710551Y-74308196D01*
X144871141Y-74314815D01*
X145027123Y-74334483D01*
X145179090Y-74367055D01*
X145179090Y-74888869D01*
X145095759Y-74845938D01*
X144992977Y-74812097D01*
X144884173Y-74791496D01*
X144774294Y-74784646D01*
X144660785Y-74793733D01*
X144564700Y-74819430D01*
X144482924Y-74860390D01*
X144413119Y-74916670D01*
X144356717Y-74986442D01*
X144315768Y-75067767D01*
X144290140Y-75162892D01*
X144281095Y-75274821D01*
X144290152Y-75386156D01*
X144315791Y-75480530D01*
X144356733Y-75560996D01*
X144413119Y-75629832D01*
X144482862Y-75685523D01*
X144563490Y-75725857D01*
X144657102Y-75751023D01*
X144766501Y-75759878D01*
X144900498Y-75748746D01*
X145037463Y-75714640D01*
X145179090Y-75655655D01*
X145179090Y-76153507D01*
G37*
G36*
X146676835Y-76206550D02*
G01*
X146676835Y-75506764D01*
X146031372Y-75506764D01*
X146031372Y-76206550D01*
X145469194Y-76206550D01*
X145469194Y-74337974D01*
X146031372Y-74337974D01*
X146031372Y-75030315D01*
X146676835Y-75030315D01*
X146676835Y-74337974D01*
X147239013Y-74337974D01*
X147239013Y-76206550D01*
X146676835Y-76206550D01*
G37*
G36*
X147607633Y-76206550D02*
G01*
X147607633Y-74337974D01*
X148169811Y-74337974D01*
X148169811Y-76206550D01*
X147607633Y-76206550D01*
G37*
G36*
X149504054Y-74349493D02*
G01*
X149662458Y-74380666D01*
X149785011Y-74427482D01*
X149878677Y-74487563D01*
X149955558Y-74568466D01*
X150012188Y-74669757D01*
X150048433Y-74795932D01*
X150061533Y-74953194D01*
X150050414Y-75077761D01*
X150018004Y-75190128D01*
X149964522Y-75292734D01*
X149891971Y-75382845D01*
X149800675Y-75459159D01*
X149688028Y-75522235D01*
X149565756Y-75566318D01*
X149427409Y-75593897D01*
X149270320Y-75603543D01*
X149098515Y-75603543D01*
X149098515Y-76206550D01*
X148536337Y-76206550D01*
X148536337Y-75201539D01*
X149098515Y-75201539D01*
X149224839Y-75201539D01*
X149317478Y-75190998D01*
X149382683Y-75162932D01*
X149427823Y-75119414D01*
X149456331Y-75057937D01*
X149466902Y-74972038D01*
X149458729Y-74898472D01*
X149436233Y-74842055D01*
X149400483Y-74798721D01*
X149352827Y-74767694D01*
X149289339Y-74747464D01*
X149205297Y-74739979D01*
X149098515Y-74739979D01*
X149098515Y-75201539D01*
X148536337Y-75201539D01*
X148536337Y-74337974D01*
X149301494Y-74337974D01*
X149504054Y-74349493D01*
G37*
G36*
X152659206Y-76081272D02*
G01*
X152539428Y-76134048D01*
X152344210Y-76188752D01*
X152136520Y-76224798D01*
X151944765Y-76236328D01*
X151744236Y-76225010D01*
X151571949Y-76193053D01*
X151423879Y-76142753D01*
X151296576Y-76075406D01*
X151187285Y-75991240D01*
X151093608Y-75888435D01*
X151020177Y-75770844D01*
X150966265Y-75636333D01*
X150932445Y-75481960D01*
X150920561Y-75304134D01*
X150929390Y-75156669D01*
X150955131Y-75020766D01*
X150997110Y-74894843D01*
X151055261Y-74777550D01*
X151129590Y-74669279D01*
X151216945Y-74575552D01*
X151318146Y-74495261D01*
X151434582Y-74427890D01*
X151557831Y-74377056D01*
X151693850Y-74339629D01*
X151844306Y-74316297D01*
X152011068Y-74308196D01*
X152172551Y-74315458D01*
X152345240Y-74337982D01*
X152530323Y-74377058D01*
X152530323Y-74866536D01*
X152401629Y-74816041D01*
X152283142Y-74785111D01*
X152161739Y-74768240D01*
X152024096Y-74762312D01*
X151909775Y-74771795D01*
X151812061Y-74798752D01*
X151727956Y-74842015D01*
X151655243Y-74901897D01*
X151596908Y-74975423D01*
X151554300Y-75061991D01*
X151527487Y-75164158D01*
X151517984Y-75285290D01*
X151526138Y-75402331D01*
X151548977Y-75500153D01*
X151584834Y-75582018D01*
X151633142Y-75650537D01*
X151694988Y-75707089D01*
X151767691Y-75747820D01*
X151853417Y-75773233D01*
X151955234Y-75782212D01*
X152045074Y-75777788D01*
X152097029Y-75767323D01*
X152097029Y-75499320D01*
X151739110Y-75499320D01*
X151739110Y-75074982D01*
X152659206Y-75074982D01*
X152659206Y-76081272D01*
G37*
G36*
X152962105Y-76206550D02*
G01*
X152962105Y-74337974D01*
X154124265Y-74337974D01*
X154124265Y-74777201D01*
X153524283Y-74777201D01*
X153524283Y-75052649D01*
X154087857Y-75052649D01*
X154087857Y-75491875D01*
X153524283Y-75491875D01*
X153524283Y-75767323D01*
X154167187Y-75767323D01*
X154167187Y-76206550D01*
X152962105Y-76206550D01*
G37*
G36*
X155736353Y-76206550D02*
G01*
X155077862Y-75305064D01*
X154950374Y-75112205D01*
X154945140Y-75112205D01*
X154952933Y-75422316D01*
X154952933Y-76206550D01*
X154432398Y-76206550D01*
X154432398Y-74337974D01*
X154963402Y-74337974D01*
X155594558Y-75194443D01*
X155623173Y-75234807D01*
X155657022Y-75282963D01*
X155688894Y-75331120D01*
X155711693Y-75372763D01*
X155716927Y-75372763D01*
X155709018Y-75174902D01*
X155709018Y-74337974D01*
X156229553Y-74337974D01*
X156229553Y-76206550D01*
X155736353Y-76206550D01*
G37*
G36*
X157271320Y-76206550D02*
G01*
X157271320Y-76057077D01*
X157281708Y-75904342D01*
X157310288Y-75781398D01*
X157360028Y-75668921D01*
X157433239Y-75561668D01*
X157535862Y-75455669D01*
X157725553Y-75297736D01*
X157860278Y-75187420D01*
X157922600Y-75129420D01*
X157966577Y-75077044D01*
X157995533Y-75029966D01*
X158013535Y-74980106D01*
X158019611Y-74925859D01*
X158010450Y-74858252D01*
X157985323Y-74808824D01*
X157944452Y-74772845D01*
X157883770Y-74749050D01*
X157795810Y-74739979D01*
X157685471Y-74749841D01*
X157577863Y-74779529D01*
X157471441Y-74830099D01*
X157364958Y-74903758D01*
X157364958Y-74448944D01*
X157519030Y-74380887D01*
X157654481Y-74339487D01*
X157790554Y-74316068D01*
X157931091Y-74308196D01*
X158084235Y-74318639D01*
X158210909Y-74347742D01*
X158315671Y-74393151D01*
X158402190Y-74453946D01*
X158473681Y-74532157D01*
X158525210Y-74624253D01*
X158557385Y-74733009D01*
X158568761Y-74862348D01*
X158558353Y-74994319D01*
X158528800Y-75107239D01*
X158481520Y-75204447D01*
X158415086Y-75290539D01*
X158310625Y-75387459D01*
X158157451Y-75497110D01*
X157993071Y-75608459D01*
X157917365Y-75668218D01*
X157869688Y-75722781D01*
X157856879Y-75759878D01*
X158585627Y-75759878D01*
X158585627Y-76206550D01*
X157271320Y-76206550D01*
G37*
G36*
X159486298Y-75971814D02*
G01*
X159476691Y-76047134D01*
X159449089Y-76110000D01*
X159403013Y-76163395D01*
X159343473Y-76202464D01*
X159268153Y-76227323D01*
X159172698Y-76236328D01*
X159086265Y-76227310D01*
X159014195Y-76201712D01*
X158953433Y-76160138D01*
X158905686Y-76104760D01*
X158877706Y-76042794D01*
X158868170Y-75971814D01*
X158877760Y-75899314D01*
X158905453Y-75838421D01*
X158952038Y-75786283D01*
X159011778Y-75748047D01*
X159085809Y-75723893D01*
X159177932Y-75715211D01*
X159267314Y-75723779D01*
X159340573Y-75747834D01*
X159401035Y-75786283D01*
X159448464Y-75838525D01*
X159476578Y-75899416D01*
X159486298Y-75971814D01*
G37*
G36*
X160575205Y-74319759D02*
G01*
X160696260Y-74352469D01*
X160799481Y-74404687D01*
X160887834Y-74476626D01*
X160963019Y-74570331D01*
X161025319Y-74689492D01*
X161073582Y-74839191D01*
X161105320Y-75025638D01*
X161116881Y-75255977D01*
X161108026Y-75456039D01*
X161083299Y-75625084D01*
X161045032Y-75767343D01*
X160994937Y-75886603D01*
X160934025Y-75986122D01*
X160854865Y-76075530D01*
X160763897Y-76144376D01*
X160659558Y-76194292D01*
X160539321Y-76225405D01*
X160399881Y-76236328D01*
X160255491Y-76225949D01*
X160132839Y-76196641D01*
X160028308Y-76150196D01*
X159939027Y-76087046D01*
X159863061Y-76006245D01*
X159804744Y-75914960D01*
X159756259Y-75802304D01*
X159718787Y-75664349D01*
X159694295Y-75496515D01*
X159685439Y-75293665D01*
X159685942Y-75282731D01*
X160234589Y-75282731D01*
X160246345Y-75545523D01*
X160274254Y-75699042D01*
X160310100Y-75780863D01*
X160351529Y-75821611D01*
X160399881Y-75834323D01*
X160447626Y-75821049D01*
X160490105Y-75777344D01*
X160528463Y-75687232D01*
X160558050Y-75524755D01*
X160570290Y-75256559D01*
X160558682Y-74995129D01*
X160531207Y-74843504D01*
X160495826Y-74763203D01*
X160454234Y-74722889D01*
X160404999Y-74710201D01*
X160357133Y-74723427D01*
X160314631Y-74766884D01*
X160276320Y-74856292D01*
X160246797Y-75017263D01*
X160234589Y-75282731D01*
X159685942Y-75282731D01*
X159694703Y-75092381D01*
X159720582Y-74922362D01*
X159760671Y-74779279D01*
X159813251Y-74659285D01*
X159877368Y-74559100D01*
X159959902Y-74469738D01*
X160054574Y-74400688D01*
X160163035Y-74350504D01*
X160287851Y-74319189D01*
X160432334Y-74308196D01*
X160575205Y-74319759D01*
G37*
D12*
X173507937Y-105821617D02*
X173613512Y-105924470D01*
X173613512Y-105924470D02*
X173819709Y-106043518D01*
X173819709Y-106043518D02*
X173920330Y-106059713D01*
X173920330Y-106059713D02*
X173979713Y-106052098D01*
X173979713Y-106052098D02*
X174057238Y-106013059D01*
X174057238Y-106013059D02*
X174093523Y-105950210D01*
X174093523Y-105950210D02*
X174088570Y-105863552D01*
X174088570Y-105863552D02*
X174065473Y-105808318D01*
X174065473Y-105808318D02*
X174001138Y-105729274D01*
X174001138Y-105729274D02*
X173854323Y-105602612D01*
X173854323Y-105602612D02*
X173789987Y-105523569D01*
X173789987Y-105523569D02*
X173766891Y-105468335D01*
X173766891Y-105468335D02*
X173761937Y-105381677D01*
X173761937Y-105381677D02*
X173798223Y-105318828D01*
X173798223Y-105318828D02*
X173875748Y-105279789D01*
X173875748Y-105279789D02*
X173935130Y-105272174D01*
X173935130Y-105272174D02*
X174035752Y-105288369D01*
X174035752Y-105288369D02*
X174241948Y-105407416D01*
X174241948Y-105407416D02*
X174347523Y-105510269D01*
X174654341Y-105645511D02*
X174479538Y-106424470D01*
X174479538Y-106424470D02*
X174916638Y-106048343D01*
X174916638Y-106048343D02*
X174809452Y-106614947D01*
X174809452Y-106614947D02*
X175396649Y-106074083D01*
X175799196Y-107186375D02*
X175304324Y-106900661D01*
X175551760Y-107043518D02*
X175932760Y-106383607D01*
X175932760Y-106383607D02*
X175795853Y-106430261D01*
X175795853Y-106430261D02*
X175677088Y-106445490D01*
X175677088Y-106445490D02*
X175576467Y-106429296D01*
X133127301Y-116254663D02*
X132815112Y-116700516D01*
X132815112Y-116700516D02*
X132713666Y-116762373D01*
X132713666Y-116762373D02*
X132594027Y-116767194D01*
X132594027Y-116767194D02*
X132456192Y-116714978D01*
X132456192Y-116714978D02*
X132378178Y-116660351D01*
X133509388Y-117452433D02*
X133041301Y-117124675D01*
X133275345Y-117288554D02*
X133712410Y-116664360D01*
X133712410Y-116664360D02*
X133571958Y-116698905D01*
X133571958Y-116698905D02*
X133452318Y-116703725D01*
X133452318Y-116703725D02*
X133353491Y-116678823D01*
X153946026Y-123408903D02*
X153898652Y-123372298D01*
X153898652Y-123372298D02*
X153826629Y-123243700D01*
X153826629Y-123243700D02*
X153801979Y-123151707D01*
X153801979Y-123151707D02*
X153800054Y-123004327D01*
X153800054Y-123004327D02*
X153845504Y-122893551D01*
X153845504Y-122893551D02*
X153903277Y-122828771D01*
X153903277Y-122828771D02*
X154031150Y-122745209D01*
X154031150Y-122745209D02*
X154136298Y-122717035D01*
X154136298Y-122717035D02*
X154288820Y-122725466D01*
X154288820Y-122725466D02*
X154371243Y-122752679D01*
X154371243Y-122752679D02*
X154465991Y-122825889D01*
X154465991Y-122825889D02*
X154538015Y-122954487D01*
X154538015Y-122954487D02*
X154562664Y-123046480D01*
X154562664Y-123046480D02*
X154564589Y-123193861D01*
X154564589Y-123193861D02*
X154541864Y-123249249D01*
X154846133Y-124104399D02*
X154722885Y-123644434D01*
X154722885Y-123644434D02*
X154360068Y-123692352D01*
X154360068Y-123692352D02*
X154407442Y-123728957D01*
X154407442Y-123728957D02*
X154467140Y-123811559D01*
X154467140Y-123811559D02*
X154528764Y-124041541D01*
X154528764Y-124041541D02*
X154518364Y-124142925D01*
X154518364Y-124142925D02*
X154495640Y-124198313D01*
X154495640Y-124198313D02*
X154437866Y-124263093D01*
X154437866Y-124263093D02*
X154262619Y-124310050D01*
X154262619Y-124310050D02*
X154180196Y-124282836D01*
X154180196Y-124282836D02*
X154132822Y-124246231D01*
X154132822Y-124246231D02*
X154073123Y-124163630D01*
X154073123Y-124163630D02*
X154011499Y-123933647D01*
X154011499Y-123933647D02*
X154021899Y-123832263D01*
X154021899Y-123832263D02*
X154044624Y-123776875D01*
X172416201Y-82162162D02*
X172359165Y-82143968D01*
X172359165Y-82143968D02*
X172247502Y-82047758D01*
X172247502Y-82047758D02*
X172192875Y-81969744D01*
X172192875Y-81969744D02*
X172140659Y-81831910D01*
X172140659Y-81831910D02*
X172145480Y-81712270D01*
X172145480Y-81712270D02*
X172177614Y-81631637D01*
X172177614Y-81631637D02*
X172269195Y-81509380D01*
X172269195Y-81509380D02*
X172358365Y-81446942D01*
X172358365Y-81446942D02*
X172504573Y-81402698D01*
X172504573Y-81402698D02*
X172591333Y-81400080D01*
X172591333Y-81400080D02*
X172705406Y-81436470D01*
X172705406Y-81436470D02*
X172817069Y-81532679D01*
X172817069Y-81532679D02*
X172871695Y-81610693D01*
X172871695Y-81610693D02*
X172923911Y-81748528D01*
X172923911Y-81748528D02*
X172921501Y-81808347D01*
X173140006Y-82120405D02*
X173197043Y-82138600D01*
X173197043Y-82138600D02*
X173281393Y-82195802D01*
X173281393Y-82195802D02*
X173417959Y-82390838D01*
X173417959Y-82390838D02*
X173442862Y-82489665D01*
X173442862Y-82489665D02*
X173440451Y-82549485D01*
X173440451Y-82549485D02*
X173408317Y-82630117D01*
X173408317Y-82630117D02*
X173348870Y-82671743D01*
X173348870Y-82671743D02*
X173232387Y-82695173D01*
X173232387Y-82695173D02*
X172547946Y-82476838D01*
X172547946Y-82476838D02*
X172903018Y-82983932D01*
X168885573Y-87371275D02*
X168393292Y-87350398D01*
X168481512Y-87775336D02*
X167942697Y-87236521D01*
X167942697Y-87236521D02*
X168212071Y-86967147D01*
X168212071Y-86967147D02*
X168305072Y-86925461D01*
X168305072Y-86925461D02*
X168364402Y-86917447D01*
X168364402Y-86917447D02*
X168449389Y-86935091D01*
X168449389Y-86935091D02*
X168526363Y-87012065D01*
X168526363Y-87012065D02*
X168544007Y-87097052D01*
X168544007Y-87097052D02*
X168535993Y-87156382D01*
X168535993Y-87156382D02*
X168494308Y-87249383D01*
X168494308Y-87249383D02*
X168224934Y-87518757D01*
X168582460Y-86596757D02*
X169020193Y-86159025D01*
X169020193Y-86159025D02*
X168989754Y-86599990D01*
X168989754Y-86599990D02*
X169090769Y-86498975D01*
X169090769Y-86498975D02*
X169183770Y-86457289D01*
X169183770Y-86457289D02*
X169243100Y-86449275D01*
X169243100Y-86449275D02*
X169328088Y-86466919D01*
X169328088Y-86466919D02*
X169456377Y-86595208D01*
X169456377Y-86595208D02*
X169474021Y-86680196D01*
X169474021Y-86680196D02*
X169466007Y-86739526D01*
X169466007Y-86739526D02*
X169424321Y-86832527D01*
X169424321Y-86832527D02*
X169222291Y-87034557D01*
X169222291Y-87034557D02*
X169129289Y-87076243D01*
X169129289Y-87076243D02*
X169069960Y-87084257D01*
X159213911Y-121610695D02*
X159373565Y-122206533D01*
X159373565Y-122206533D02*
X159438345Y-122264307D01*
X159438345Y-122264307D02*
X159493732Y-122287032D01*
X159493732Y-122287032D02*
X159595117Y-122297432D01*
X159595117Y-122297432D02*
X159779103Y-122248133D01*
X159779103Y-122248133D02*
X159861704Y-122188434D01*
X159861704Y-122188434D02*
X159898309Y-122141060D01*
X159898309Y-122141060D02*
X159925523Y-122058637D01*
X159925523Y-122058637D02*
X159765868Y-121462798D01*
X160639801Y-121228629D02*
X160455815Y-121277928D01*
X160455815Y-121277928D02*
X160373214Y-121337626D01*
X160373214Y-121337626D02*
X160336609Y-121385000D01*
X160336609Y-121385000D02*
X160272790Y-121514798D01*
X160272790Y-121514798D02*
X160264360Y-121667320D01*
X160264360Y-121667320D02*
X160339491Y-121947714D01*
X160339491Y-121947714D02*
X160404270Y-122005488D01*
X160404270Y-122005488D02*
X160459658Y-122028213D01*
X160459658Y-122028213D02*
X160561043Y-122038613D01*
X160561043Y-122038613D02*
X160745028Y-121989314D01*
X160745028Y-121989314D02*
X160827630Y-121929615D01*
X160827630Y-121929615D02*
X160864235Y-121882241D01*
X160864235Y-121882241D02*
X160891449Y-121799818D01*
X160891449Y-121799818D02*
X160844491Y-121624571D01*
X160844491Y-121624571D02*
X160779712Y-121566797D01*
X160779712Y-121566797D02*
X160724324Y-121544073D01*
X160724324Y-121544073D02*
X160622940Y-121533673D01*
X160622940Y-121533673D02*
X160438954Y-121582972D01*
X160438954Y-121582972D02*
X160356352Y-121642670D01*
X160356352Y-121642670D02*
X160319747Y-121690044D01*
X160319747Y-121690044D02*
X160292534Y-121772468D01*
X172758495Y-101892009D02*
X172758495Y-102508866D01*
X172758495Y-102508866D02*
X172806114Y-102581438D01*
X172806114Y-102581438D02*
X172853733Y-102617724D01*
X172853733Y-102617724D02*
X172948971Y-102654009D01*
X172948971Y-102654009D02*
X173139447Y-102654009D01*
X173139447Y-102654009D02*
X173234685Y-102617724D01*
X173234685Y-102617724D02*
X173282304Y-102581438D01*
X173282304Y-102581438D02*
X173329923Y-102508866D01*
X173329923Y-102508866D02*
X173329923Y-101892009D01*
X174234685Y-102146009D02*
X174234685Y-102654009D01*
X173996590Y-101855724D02*
X173758495Y-102400009D01*
X173758495Y-102400009D02*
X174377542Y-102400009D01*
X155946026Y-124408903D02*
X155898652Y-124372298D01*
X155898652Y-124372298D02*
X155826629Y-124243700D01*
X155826629Y-124243700D02*
X155801979Y-124151707D01*
X155801979Y-124151707D02*
X155800054Y-124004327D01*
X155800054Y-124004327D02*
X155845504Y-123893551D01*
X155845504Y-123893551D02*
X155903277Y-123828771D01*
X155903277Y-123828771D02*
X156031150Y-123745209D01*
X156031150Y-123745209D02*
X156136298Y-123717035D01*
X156136298Y-123717035D02*
X156288820Y-123725466D01*
X156288820Y-123725466D02*
X156371243Y-123752679D01*
X156371243Y-123752679D02*
X156465991Y-123825889D01*
X156465991Y-123825889D02*
X156538015Y-123954487D01*
X156538015Y-123954487D02*
X156562664Y-124046480D01*
X156562664Y-124046480D02*
X156564589Y-124193861D01*
X156564589Y-124193861D02*
X156541864Y-124249249D01*
X156833808Y-125058403D02*
X156784509Y-124874417D01*
X156784509Y-124874417D02*
X156724810Y-124791815D01*
X156724810Y-124791815D02*
X156677436Y-124755210D01*
X156677436Y-124755210D02*
X156547639Y-124691392D01*
X156547639Y-124691392D02*
X156395117Y-124682961D01*
X156395117Y-124682961D02*
X156114723Y-124758092D01*
X156114723Y-124758092D02*
X156056949Y-124822872D01*
X156056949Y-124822872D02*
X156034224Y-124878259D01*
X156034224Y-124878259D02*
X156023824Y-124979644D01*
X156023824Y-124979644D02*
X156073123Y-125163630D01*
X156073123Y-125163630D02*
X156132822Y-125246231D01*
X156132822Y-125246231D02*
X156180196Y-125282836D01*
X156180196Y-125282836D02*
X156262619Y-125310050D01*
X156262619Y-125310050D02*
X156437866Y-125263093D01*
X156437866Y-125263093D02*
X156495640Y-125198313D01*
X156495640Y-125198313D02*
X156518364Y-125142925D01*
X156518364Y-125142925D02*
X156528764Y-125041541D01*
X156528764Y-125041541D02*
X156479465Y-124857555D01*
X156479465Y-124857555D02*
X156419766Y-124774954D01*
X156419766Y-124774954D02*
X156372392Y-124738349D01*
X156372392Y-124738349D02*
X156289969Y-124711135D01*
X165624886Y-120389271D02*
X165208997Y-120125051D01*
X165072929Y-120537168D02*
X164875709Y-119801133D01*
X164875709Y-119801133D02*
X165243680Y-119702535D01*
X165243680Y-119702535D02*
X165345065Y-119712935D01*
X165345065Y-119712935D02*
X165400453Y-119735659D01*
X165400453Y-119735659D02*
X165465232Y-119793433D01*
X165465232Y-119793433D02*
X165493406Y-119898581D01*
X165493406Y-119898581D02*
X165466193Y-119981004D01*
X165466193Y-119981004D02*
X165429588Y-120028378D01*
X165429588Y-120028378D02*
X165346986Y-120088077D01*
X165346986Y-120088077D02*
X164979014Y-120186675D01*
X165749641Y-119566963D02*
X166393592Y-119394417D01*
X166393592Y-119394417D02*
X166176844Y-120241375D01*
X143911253Y-128527037D02*
X143422826Y-128591962D01*
X143583495Y-128995124D02*
X142959301Y-128558059D01*
X142959301Y-128558059D02*
X143177807Y-128246001D01*
X143177807Y-128246001D02*
X143262156Y-128188799D01*
X143262156Y-128188799D02*
X143319193Y-128170605D01*
X143319193Y-128170605D02*
X143405953Y-128173223D01*
X143405953Y-128173223D02*
X143495124Y-128235660D01*
X143495124Y-128235660D02*
X143527258Y-128316293D01*
X143527258Y-128316293D02*
X143529668Y-128376113D01*
X143529668Y-128376113D02*
X143504765Y-128474940D01*
X143504765Y-128474940D02*
X143286260Y-128786998D01*
X143565012Y-127819539D02*
X143562601Y-127759720D01*
X143562601Y-127759720D02*
X143587504Y-127660892D01*
X143587504Y-127660892D02*
X143724070Y-127465856D01*
X143724070Y-127465856D02*
X143808420Y-127408654D01*
X143808420Y-127408654D02*
X143865456Y-127390460D01*
X143865456Y-127390460D02*
X143952217Y-127393078D01*
X143952217Y-127393078D02*
X144011664Y-127434703D01*
X144011664Y-127434703D02*
X144073521Y-127536148D01*
X144073521Y-127536148D02*
X144102445Y-128253987D01*
X144102445Y-128253987D02*
X144457516Y-127746893D01*
X152333666Y-123659809D02*
X152333666Y-124204095D01*
X152333666Y-124204095D02*
X152286047Y-124312952D01*
X152286047Y-124312952D02*
X152190809Y-124385524D01*
X152190809Y-124385524D02*
X152047952Y-124421809D01*
X152047952Y-124421809D02*
X151952714Y-124421809D01*
X152714619Y-123659809D02*
X153333666Y-123659809D01*
X153333666Y-123659809D02*
X153000333Y-123950095D01*
X153000333Y-123950095D02*
X153143190Y-123950095D01*
X153143190Y-123950095D02*
X153238428Y-123986381D01*
X153238428Y-123986381D02*
X153286047Y-124022666D01*
X153286047Y-124022666D02*
X153333666Y-124095238D01*
X153333666Y-124095238D02*
X153333666Y-124276666D01*
X153333666Y-124276666D02*
X153286047Y-124349238D01*
X153286047Y-124349238D02*
X153238428Y-124385524D01*
X153238428Y-124385524D02*
X153143190Y-124421809D01*
X153143190Y-124421809D02*
X152857476Y-124421809D01*
X152857476Y-124421809D02*
X152762238Y-124385524D01*
X152762238Y-124385524D02*
X152714619Y-124349238D01*
X157982528Y-127232686D02*
X158246748Y-126816797D01*
X157834631Y-126680729D02*
X158570666Y-126483509D01*
X158570666Y-126483509D02*
X158669264Y-126851480D01*
X158669264Y-126851480D02*
X158658864Y-126952865D01*
X158658864Y-126952865D02*
X158636140Y-127008253D01*
X158636140Y-127008253D02*
X158578366Y-127073032D01*
X158578366Y-127073032D02*
X158473218Y-127101206D01*
X158473218Y-127101206D02*
X158390795Y-127073993D01*
X158390795Y-127073993D02*
X158343421Y-127037388D01*
X158343421Y-127037388D02*
X158283722Y-126954786D01*
X158283722Y-126954786D02*
X158185124Y-126586814D01*
X158940408Y-127863403D02*
X158891109Y-127679417D01*
X158891109Y-127679417D02*
X158831410Y-127596815D01*
X158831410Y-127596815D02*
X158784036Y-127560210D01*
X158784036Y-127560210D02*
X158654239Y-127496392D01*
X158654239Y-127496392D02*
X158501717Y-127487961D01*
X158501717Y-127487961D02*
X158221323Y-127563092D01*
X158221323Y-127563092D02*
X158163549Y-127627872D01*
X158163549Y-127627872D02*
X158140824Y-127683259D01*
X158140824Y-127683259D02*
X158130424Y-127784644D01*
X158130424Y-127784644D02*
X158179723Y-127968630D01*
X158179723Y-127968630D02*
X158239422Y-128051231D01*
X158239422Y-128051231D02*
X158286796Y-128087836D01*
X158286796Y-128087836D02*
X158369219Y-128115050D01*
X158369219Y-128115050D02*
X158544466Y-128068093D01*
X158544466Y-128068093D02*
X158602240Y-128003313D01*
X158602240Y-128003313D02*
X158624964Y-127947925D01*
X158624964Y-127947925D02*
X158635364Y-127846541D01*
X158635364Y-127846541D02*
X158586065Y-127662555D01*
X158586065Y-127662555D02*
X158526366Y-127579954D01*
X158526366Y-127579954D02*
X158478992Y-127543349D01*
X158478992Y-127543349D02*
X158396569Y-127516135D01*
X162864205Y-77981098D02*
X162428021Y-78417282D01*
X162428021Y-78417282D02*
X162410377Y-78502269D01*
X162410377Y-78502269D02*
X162418391Y-78561599D01*
X162418391Y-78561599D02*
X162460077Y-78654600D01*
X162460077Y-78654600D02*
X162594764Y-78789287D01*
X162594764Y-78789287D02*
X162687765Y-78830973D01*
X162687765Y-78830973D02*
X162747095Y-78838987D01*
X162747095Y-78838987D02*
X162832082Y-78821343D01*
X162832082Y-78821343D02*
X163268266Y-78385159D01*
X163537640Y-78654533D02*
X163975373Y-79092266D01*
X163975373Y-79092266D02*
X163534408Y-79061826D01*
X163534408Y-79061826D02*
X163635423Y-79162842D01*
X163635423Y-79162842D02*
X163677109Y-79255843D01*
X163677109Y-79255843D02*
X163685122Y-79315173D01*
X163685122Y-79315173D02*
X163667478Y-79400160D01*
X163667478Y-79400160D02*
X163539189Y-79528449D01*
X163539189Y-79528449D02*
X163454202Y-79546093D01*
X163454202Y-79546093D02*
X163394872Y-79538080D01*
X163394872Y-79538080D02*
X163301871Y-79496394D01*
X163301871Y-79496394D02*
X163099840Y-79294363D01*
X163099840Y-79294363D02*
X163058154Y-79201362D01*
X163058154Y-79201362D02*
X163050141Y-79142032D01*
X135152675Y-117637295D02*
X135589740Y-117013101D01*
X135589740Y-117013101D02*
X135784776Y-117149667D01*
X135784776Y-117149667D02*
X135880985Y-117261330D01*
X135880985Y-117261330D02*
X135917375Y-117375404D01*
X135917375Y-117375404D02*
X135914757Y-117462164D01*
X135914757Y-117462164D02*
X135870513Y-117608371D01*
X135870513Y-117608371D02*
X135808075Y-117697541D01*
X135808075Y-117697541D02*
X135685818Y-117789122D01*
X135685818Y-117789122D02*
X135605185Y-117821256D01*
X135605185Y-117821256D02*
X135485545Y-117826077D01*
X135485545Y-117826077D02*
X135347711Y-117773861D01*
X135347711Y-117773861D02*
X135152675Y-117637295D01*
X136328260Y-117618812D02*
X136388079Y-117616401D01*
X136388079Y-117616401D02*
X136486907Y-117641304D01*
X136486907Y-117641304D02*
X136681943Y-117777870D01*
X136681943Y-117777870D02*
X136739145Y-117862220D01*
X136739145Y-117862220D02*
X136757339Y-117919256D01*
X136757339Y-117919256D02*
X136754721Y-118006017D01*
X136754721Y-118006017D02*
X136713096Y-118065464D01*
X136713096Y-118065464D02*
X136611651Y-118127321D01*
X136611651Y-118127321D02*
X135893812Y-118156245D01*
X135893812Y-118156245D02*
X136400906Y-118511316D01*
X176592609Y-99488094D02*
X175830609Y-99488094D01*
X175830609Y-99488094D02*
X175830609Y-99249999D01*
X175830609Y-99249999D02*
X175866895Y-99107142D01*
X175866895Y-99107142D02*
X175939466Y-99011904D01*
X175939466Y-99011904D02*
X176012038Y-98964285D01*
X176012038Y-98964285D02*
X176157181Y-98916666D01*
X176157181Y-98916666D02*
X176266038Y-98916666D01*
X176266038Y-98916666D02*
X176411181Y-98964285D01*
X176411181Y-98964285D02*
X176483752Y-99011904D01*
X176483752Y-99011904D02*
X176556324Y-99107142D01*
X176556324Y-99107142D02*
X176592609Y-99249999D01*
X176592609Y-99249999D02*
X176592609Y-99488094D01*
X175830609Y-98583332D02*
X175830609Y-97964285D01*
X175830609Y-97964285D02*
X176120895Y-98297618D01*
X176120895Y-98297618D02*
X176120895Y-98154761D01*
X176120895Y-98154761D02*
X176157181Y-98059523D01*
X176157181Y-98059523D02*
X176193466Y-98011904D01*
X176193466Y-98011904D02*
X176266038Y-97964285D01*
X176266038Y-97964285D02*
X176447466Y-97964285D01*
X176447466Y-97964285D02*
X176520038Y-98011904D01*
X176520038Y-98011904D02*
X176556324Y-98059523D01*
X176556324Y-98059523D02*
X176592609Y-98154761D01*
X176592609Y-98154761D02*
X176592609Y-98440475D01*
X176592609Y-98440475D02*
X176556324Y-98535713D01*
X176556324Y-98535713D02*
X176520038Y-98583332D01*
X147266496Y-126505924D02*
X146642302Y-126068859D01*
X146642302Y-126068859D02*
X146778868Y-125873823D01*
X146778868Y-125873823D02*
X146890531Y-125777614D01*
X146890531Y-125777614D02*
X147004605Y-125741224D01*
X147004605Y-125741224D02*
X147091365Y-125743842D01*
X147091365Y-125743842D02*
X147237572Y-125788086D01*
X147237572Y-125788086D02*
X147326742Y-125850524D01*
X147326742Y-125850524D02*
X147418323Y-125972781D01*
X147418323Y-125972781D02*
X147450457Y-126053414D01*
X147450457Y-126053414D02*
X147455278Y-126173054D01*
X147455278Y-126173054D02*
X147403062Y-126310888D01*
X147403062Y-126310888D02*
X147266496Y-126505924D01*
X148140517Y-125257693D02*
X147812759Y-125725779D01*
X147976638Y-125491736D02*
X147352445Y-125054671D01*
X147352445Y-125054671D02*
X147386989Y-125195123D01*
X147386989Y-125195123D02*
X147391810Y-125314763D01*
X147391810Y-125314763D02*
X147366907Y-125413590D01*
X166107486Y-124707271D02*
X165691597Y-124443051D01*
X165555529Y-124855168D02*
X165358309Y-124119133D01*
X165358309Y-124119133D02*
X165726280Y-124020535D01*
X165726280Y-124020535D02*
X165827665Y-124030935D01*
X165827665Y-124030935D02*
X165883053Y-124053659D01*
X165883053Y-124053659D02*
X165947832Y-124111433D01*
X165947832Y-124111433D02*
X165976006Y-124216581D01*
X165976006Y-124216581D02*
X165948793Y-124299004D01*
X165948793Y-124299004D02*
X165912188Y-124346378D01*
X165912188Y-124346378D02*
X165829586Y-124406077D01*
X165829586Y-124406077D02*
X165461614Y-124504675D01*
X166784199Y-123737066D02*
X166324234Y-123860314D01*
X166324234Y-123860314D02*
X166372152Y-124223131D01*
X166372152Y-124223131D02*
X166408757Y-124175757D01*
X166408757Y-124175757D02*
X166491359Y-124116059D01*
X166491359Y-124116059D02*
X166721341Y-124054435D01*
X166721341Y-124054435D02*
X166822725Y-124064835D01*
X166822725Y-124064835D02*
X166878113Y-124087559D01*
X166878113Y-124087559D02*
X166942893Y-124145333D01*
X166942893Y-124145333D02*
X166989850Y-124320580D01*
X166989850Y-124320580D02*
X166962636Y-124403003D01*
X166962636Y-124403003D02*
X166926031Y-124450377D01*
X166926031Y-124450377D02*
X166843430Y-124510076D01*
X166843430Y-124510076D02*
X166613447Y-124571700D01*
X166613447Y-124571700D02*
X166512063Y-124561300D01*
X166512063Y-124561300D02*
X166456675Y-124538575D01*
X123926609Y-99747494D02*
X123164609Y-99747494D01*
X123164609Y-99747494D02*
X123164609Y-99509399D01*
X123164609Y-99509399D02*
X123200895Y-99366542D01*
X123200895Y-99366542D02*
X123273466Y-99271304D01*
X123273466Y-99271304D02*
X123346038Y-99223685D01*
X123346038Y-99223685D02*
X123491181Y-99176066D01*
X123491181Y-99176066D02*
X123600038Y-99176066D01*
X123600038Y-99176066D02*
X123745181Y-99223685D01*
X123745181Y-99223685D02*
X123817752Y-99271304D01*
X123817752Y-99271304D02*
X123890324Y-99366542D01*
X123890324Y-99366542D02*
X123926609Y-99509399D01*
X123926609Y-99509399D02*
X123926609Y-99747494D01*
X123164609Y-98842732D02*
X123164609Y-98176066D01*
X123164609Y-98176066D02*
X123926609Y-98604637D01*
X154324316Y-121265463D02*
X154334716Y-121164079D01*
X154334716Y-121164079D02*
X154380165Y-121053303D01*
X154380165Y-121053303D02*
X154448339Y-120887139D01*
X154448339Y-120887139D02*
X154458739Y-120785755D01*
X154458739Y-120785755D02*
X154434089Y-120693762D01*
X154271167Y-120786716D02*
X154281567Y-120685331D01*
X154281567Y-120685331D02*
X154327016Y-120574556D01*
X154327016Y-120574556D02*
X154454889Y-120490993D01*
X154454889Y-120490993D02*
X154700234Y-120425253D01*
X154700234Y-120425253D02*
X154852756Y-120433684D01*
X154852756Y-120433684D02*
X154947504Y-120506894D01*
X154947504Y-120506894D02*
X155007203Y-120589496D01*
X155007203Y-120589496D02*
X155056502Y-120773482D01*
X155056502Y-120773482D02*
X155046102Y-120874866D01*
X155046102Y-120874866D02*
X155000653Y-120985642D01*
X155000653Y-120985642D02*
X154872780Y-121069204D01*
X154872780Y-121069204D02*
X154627435Y-121134944D01*
X154627435Y-121134944D02*
X154474913Y-121126513D01*
X154474913Y-121126513D02*
X154380165Y-121053303D01*
X154380165Y-121053303D02*
X154320466Y-120970702D01*
X154320466Y-120970702D02*
X154271167Y-120786716D01*
X155146624Y-121390218D02*
X155193998Y-121426824D01*
X155193998Y-121426824D02*
X155253697Y-121509425D01*
X155253697Y-121509425D02*
X155315321Y-121739407D01*
X155315321Y-121739407D02*
X155304921Y-121840792D01*
X155304921Y-121840792D02*
X155282196Y-121896180D01*
X155282196Y-121896180D02*
X155224422Y-121960959D01*
X155224422Y-121960959D02*
X155154324Y-121979742D01*
X155154324Y-121979742D02*
X155036851Y-121961920D01*
X155036851Y-121961920D02*
X154468363Y-121522659D01*
X154468363Y-121522659D02*
X154628584Y-122120613D01*
X144679387Y-123392006D02*
X144619567Y-123394416D01*
X144619567Y-123394416D02*
X144481733Y-123342200D01*
X144481733Y-123342200D02*
X144403718Y-123287574D01*
X144403718Y-123287574D02*
X144307509Y-123175911D01*
X144307509Y-123175911D02*
X144271120Y-123061838D01*
X144271120Y-123061838D02*
X144273738Y-122975078D01*
X144273738Y-122975078D02*
X144317981Y-122828870D01*
X144317981Y-122828870D02*
X144380419Y-122739700D01*
X144380419Y-122739700D02*
X144502677Y-122648119D01*
X144502677Y-122648119D02*
X144583309Y-122615985D01*
X144583309Y-122615985D02*
X144702949Y-122611164D01*
X144702949Y-122611164D02*
X144840783Y-122663380D01*
X144840783Y-122663380D02*
X144918798Y-122718007D01*
X144918798Y-122718007D02*
X145015007Y-122829670D01*
X145015007Y-122829670D02*
X145033202Y-122886706D01*
X145355600Y-123422529D02*
X145298398Y-123338179D01*
X145298398Y-123338179D02*
X145280204Y-123281142D01*
X145280204Y-123281142D02*
X145282822Y-123194382D01*
X145282822Y-123194382D02*
X145303634Y-123164659D01*
X145303634Y-123164659D02*
X145384267Y-123132525D01*
X145384267Y-123132525D02*
X145444087Y-123130114D01*
X145444087Y-123130114D02*
X145542914Y-123155017D01*
X145542914Y-123155017D02*
X145698943Y-123264270D01*
X145698943Y-123264270D02*
X145756145Y-123348620D01*
X145756145Y-123348620D02*
X145774339Y-123405656D01*
X145774339Y-123405656D02*
X145771721Y-123492417D01*
X145771721Y-123492417D02*
X145750909Y-123522140D01*
X145750909Y-123522140D02*
X145670276Y-123554274D01*
X145670276Y-123554274D02*
X145610456Y-123556684D01*
X145610456Y-123556684D02*
X145511629Y-123531782D01*
X145511629Y-123531782D02*
X145355600Y-123422529D01*
X145355600Y-123422529D02*
X145256773Y-123397626D01*
X145256773Y-123397626D02*
X145196953Y-123400036D01*
X145196953Y-123400036D02*
X145116321Y-123432170D01*
X145116321Y-123432170D02*
X145033070Y-123551064D01*
X145033070Y-123551064D02*
X145030452Y-123637825D01*
X145030452Y-123637825D02*
X145048647Y-123694861D01*
X145048647Y-123694861D02*
X145105849Y-123779211D01*
X145105849Y-123779211D02*
X145261878Y-123888464D01*
X145261878Y-123888464D02*
X145360705Y-123913367D01*
X145360705Y-123913367D02*
X145420525Y-123910956D01*
X145420525Y-123910956D02*
X145501157Y-123878822D01*
X145501157Y-123878822D02*
X145584408Y-123759928D01*
X145584408Y-123759928D02*
X145587026Y-123673168D01*
X145587026Y-123673168D02*
X145568831Y-123616131D01*
X145568831Y-123616131D02*
X145511629Y-123531782D01*
X146796466Y-123431209D02*
X146796466Y-123975495D01*
X146796466Y-123975495D02*
X146748847Y-124084352D01*
X146748847Y-124084352D02*
X146653609Y-124156924D01*
X146653609Y-124156924D02*
X146510752Y-124193209D01*
X146510752Y-124193209D02*
X146415514Y-124193209D01*
X147225038Y-123503781D02*
X147272657Y-123467495D01*
X147272657Y-123467495D02*
X147367895Y-123431209D01*
X147367895Y-123431209D02*
X147605990Y-123431209D01*
X147605990Y-123431209D02*
X147701228Y-123467495D01*
X147701228Y-123467495D02*
X147748847Y-123503781D01*
X147748847Y-123503781D02*
X147796466Y-123576352D01*
X147796466Y-123576352D02*
X147796466Y-123648924D01*
X147796466Y-123648924D02*
X147748847Y-123757781D01*
X147748847Y-123757781D02*
X147177419Y-124193209D01*
X147177419Y-124193209D02*
X147796466Y-124193209D01*
X150233514Y-73952009D02*
X150233514Y-73190009D01*
X150233514Y-73190009D02*
X150471609Y-73190009D01*
X150471609Y-73190009D02*
X150614466Y-73226295D01*
X150614466Y-73226295D02*
X150709704Y-73298866D01*
X150709704Y-73298866D02*
X150757323Y-73371438D01*
X150757323Y-73371438D02*
X150804942Y-73516581D01*
X150804942Y-73516581D02*
X150804942Y-73625438D01*
X150804942Y-73625438D02*
X150757323Y-73770581D01*
X150757323Y-73770581D02*
X150709704Y-73843152D01*
X150709704Y-73843152D02*
X150614466Y-73915724D01*
X150614466Y-73915724D02*
X150471609Y-73952009D01*
X150471609Y-73952009D02*
X150233514Y-73952009D01*
X151757323Y-73952009D02*
X151185895Y-73952009D01*
X151471609Y-73952009D02*
X151471609Y-73190009D01*
X151471609Y-73190009D02*
X151376371Y-73298866D01*
X151376371Y-73298866D02*
X151281133Y-73371438D01*
X151281133Y-73371438D02*
X151185895Y-73407724D01*
X152376371Y-73190009D02*
X152471609Y-73190009D01*
X152471609Y-73190009D02*
X152566847Y-73226295D01*
X152566847Y-73226295D02*
X152614466Y-73262581D01*
X152614466Y-73262581D02*
X152662085Y-73335152D01*
X152662085Y-73335152D02*
X152709704Y-73480295D01*
X152709704Y-73480295D02*
X152709704Y-73661724D01*
X152709704Y-73661724D02*
X152662085Y-73806866D01*
X152662085Y-73806866D02*
X152614466Y-73879438D01*
X152614466Y-73879438D02*
X152566847Y-73915724D01*
X152566847Y-73915724D02*
X152471609Y-73952009D01*
X152471609Y-73952009D02*
X152376371Y-73952009D01*
X152376371Y-73952009D02*
X152281133Y-73915724D01*
X152281133Y-73915724D02*
X152233514Y-73879438D01*
X152233514Y-73879438D02*
X152185895Y-73806866D01*
X152185895Y-73806866D02*
X152138276Y-73661724D01*
X152138276Y-73661724D02*
X152138276Y-73480295D01*
X152138276Y-73480295D02*
X152185895Y-73335152D01*
X152185895Y-73335152D02*
X152233514Y-73262581D01*
X152233514Y-73262581D02*
X152281133Y-73226295D01*
X152281133Y-73226295D02*
X152376371Y-73190009D01*
X149511905Y-126592609D02*
X149511905Y-125830609D01*
X149511905Y-125830609D02*
X149750000Y-125830609D01*
X149750000Y-125830609D02*
X149892857Y-125866895D01*
X149892857Y-125866895D02*
X149988095Y-125939466D01*
X149988095Y-125939466D02*
X150035714Y-126012038D01*
X150035714Y-126012038D02*
X150083333Y-126157181D01*
X150083333Y-126157181D02*
X150083333Y-126266038D01*
X150083333Y-126266038D02*
X150035714Y-126411181D01*
X150035714Y-126411181D02*
X149988095Y-126483752D01*
X149988095Y-126483752D02*
X149892857Y-126556324D01*
X149892857Y-126556324D02*
X149750000Y-126592609D01*
X149750000Y-126592609D02*
X149511905Y-126592609D01*
X150940476Y-125830609D02*
X150750000Y-125830609D01*
X150750000Y-125830609D02*
X150654762Y-125866895D01*
X150654762Y-125866895D02*
X150607143Y-125903181D01*
X150607143Y-125903181D02*
X150511905Y-126012038D01*
X150511905Y-126012038D02*
X150464286Y-126157181D01*
X150464286Y-126157181D02*
X150464286Y-126447466D01*
X150464286Y-126447466D02*
X150511905Y-126520038D01*
X150511905Y-126520038D02*
X150559524Y-126556324D01*
X150559524Y-126556324D02*
X150654762Y-126592609D01*
X150654762Y-126592609D02*
X150845238Y-126592609D01*
X150845238Y-126592609D02*
X150940476Y-126556324D01*
X150940476Y-126556324D02*
X150988095Y-126520038D01*
X150988095Y-126520038D02*
X151035714Y-126447466D01*
X151035714Y-126447466D02*
X151035714Y-126266038D01*
X151035714Y-126266038D02*
X150988095Y-126193466D01*
X150988095Y-126193466D02*
X150940476Y-126157181D01*
X150940476Y-126157181D02*
X150845238Y-126120895D01*
X150845238Y-126120895D02*
X150654762Y-126120895D01*
X150654762Y-126120895D02*
X150559524Y-126157181D01*
X150559524Y-126157181D02*
X150511905Y-126193466D01*
X150511905Y-126193466D02*
X150464286Y-126266038D01*
X143037836Y-118904444D02*
X142684021Y-119409744D01*
X142684021Y-119409744D02*
X142681403Y-119496504D01*
X142681403Y-119496504D02*
X142699598Y-119553541D01*
X142699598Y-119553541D02*
X142756800Y-119637891D01*
X142756800Y-119637891D02*
X142912829Y-119747144D01*
X142912829Y-119747144D02*
X143011656Y-119772046D01*
X143011656Y-119772046D02*
X143071476Y-119769636D01*
X143071476Y-119769636D02*
X143152108Y-119737502D01*
X143152108Y-119737502D02*
X143505923Y-119232202D01*
X143888010Y-120429973D02*
X143419923Y-120102215D01*
X143653966Y-120266094D02*
X144091031Y-119641900D01*
X144091031Y-119641900D02*
X143950579Y-119676444D01*
X143950579Y-119676444D02*
X143830939Y-119681265D01*
X143830939Y-119681265D02*
X143732112Y-119656362D01*
X162978564Y-82044957D02*
X162486283Y-82024081D01*
X162574503Y-82449018D02*
X162035688Y-81910203D01*
X162035688Y-81910203D02*
X162305062Y-81640829D01*
X162305062Y-81640829D02*
X162398063Y-81599143D01*
X162398063Y-81599143D02*
X162457393Y-81591129D01*
X162457393Y-81591129D02*
X162542380Y-81608773D01*
X162542380Y-81608773D02*
X162619354Y-81685747D01*
X162619354Y-81685747D02*
X162636998Y-81770734D01*
X162636998Y-81770734D02*
X162628984Y-81830064D01*
X162628984Y-81830064D02*
X162587298Y-81923065D01*
X162587298Y-81923065D02*
X162317924Y-82192439D01*
X162641779Y-81304111D02*
X163416297Y-81607224D01*
X163416297Y-81607224D02*
X163113184Y-80832707D01*
X164258091Y-80765430D02*
X163854030Y-81169491D01*
X164056060Y-80967461D02*
X163517245Y-80428646D01*
X163517245Y-80428646D02*
X163526875Y-80572963D01*
X163526875Y-80572963D02*
X163510847Y-80691622D01*
X163510847Y-80691622D02*
X163469162Y-80784623D01*
X138084562Y-126677253D02*
X138019637Y-126188826D01*
X137616475Y-126349495D02*
X138053540Y-125725301D01*
X138053540Y-125725301D02*
X138365598Y-125943807D01*
X138365598Y-125943807D02*
X138422800Y-126028156D01*
X138422800Y-126028156D02*
X138440994Y-126085193D01*
X138440994Y-126085193D02*
X138438376Y-126171953D01*
X138438376Y-126171953D02*
X138375939Y-126261124D01*
X138375939Y-126261124D02*
X138295306Y-126293258D01*
X138295306Y-126293258D02*
X138235486Y-126295668D01*
X138235486Y-126295668D02*
X138136659Y-126270765D01*
X138136659Y-126270765D02*
X137824601Y-126052260D01*
X138864706Y-127223516D02*
X138396620Y-126895758D01*
X138630663Y-127059637D02*
X139067728Y-126435444D01*
X139067728Y-126435444D02*
X138927276Y-126469988D01*
X138927276Y-126469988D02*
X138807636Y-126474809D01*
X138807636Y-126474809D02*
X138708809Y-126449906D01*
X165929686Y-121659271D02*
X165513797Y-121395051D01*
X165377729Y-121807168D02*
X165180509Y-121071133D01*
X165180509Y-121071133D02*
X165548480Y-120972535D01*
X165548480Y-120972535D02*
X165649865Y-120982935D01*
X165649865Y-120982935D02*
X165705253Y-121005659D01*
X165705253Y-121005659D02*
X165770032Y-121063433D01*
X165770032Y-121063433D02*
X165798206Y-121168581D01*
X165798206Y-121168581D02*
X165770993Y-121251004D01*
X165770993Y-121251004D02*
X165734388Y-121298378D01*
X165734388Y-121298378D02*
X165651786Y-121358077D01*
X165651786Y-121358077D02*
X165283814Y-121456675D01*
X166368947Y-121090783D02*
X166267562Y-121080383D01*
X166267562Y-121080383D02*
X166212174Y-121057659D01*
X166212174Y-121057659D02*
X166147395Y-120999885D01*
X166147395Y-120999885D02*
X166138004Y-120964835D01*
X166138004Y-120964835D02*
X166165217Y-120882412D01*
X166165217Y-120882412D02*
X166201822Y-120835038D01*
X166201822Y-120835038D02*
X166284424Y-120775339D01*
X166284424Y-120775339D02*
X166468410Y-120726041D01*
X166468410Y-120726041D02*
X166569794Y-120736440D01*
X166569794Y-120736440D02*
X166625182Y-120759165D01*
X166625182Y-120759165D02*
X166689961Y-120816939D01*
X166689961Y-120816939D02*
X166699353Y-120851988D01*
X166699353Y-120851988D02*
X166672139Y-120934412D01*
X166672139Y-120934412D02*
X166635534Y-120981786D01*
X166635534Y-120981786D02*
X166552933Y-121041484D01*
X166552933Y-121041484D02*
X166368947Y-121090783D01*
X166368947Y-121090783D02*
X166286345Y-121150482D01*
X166286345Y-121150482D02*
X166249740Y-121197856D01*
X166249740Y-121197856D02*
X166222527Y-121280279D01*
X166222527Y-121280279D02*
X166260092Y-121420476D01*
X166260092Y-121420476D02*
X166324872Y-121478250D01*
X166324872Y-121478250D02*
X166380259Y-121500975D01*
X166380259Y-121500975D02*
X166481644Y-121511375D01*
X166481644Y-121511375D02*
X166665630Y-121462076D01*
X166665630Y-121462076D02*
X166748231Y-121402377D01*
X166748231Y-121402377D02*
X166784836Y-121355003D01*
X166784836Y-121355003D02*
X166812050Y-121272580D01*
X166812050Y-121272580D02*
X166774484Y-121132383D01*
X166774484Y-121132383D02*
X166709705Y-121074609D01*
X166709705Y-121074609D02*
X166654317Y-121051884D01*
X166654317Y-121051884D02*
X166552933Y-121041484D01*
X162634303Y-118439573D02*
X162597698Y-118486947D01*
X162597698Y-118486947D02*
X162469100Y-118558970D01*
X162469100Y-118558970D02*
X162377107Y-118583620D01*
X162377107Y-118583620D02*
X162229727Y-118585545D01*
X162229727Y-118585545D02*
X162118951Y-118540095D01*
X162118951Y-118540095D02*
X162054171Y-118482322D01*
X162054171Y-118482322D02*
X161970609Y-118354449D01*
X161970609Y-118354449D02*
X161942435Y-118249301D01*
X161942435Y-118249301D02*
X161950866Y-118096779D01*
X161950866Y-118096779D02*
X161978079Y-118014356D01*
X161978079Y-118014356D02*
X162051289Y-117919608D01*
X162051289Y-117919608D02*
X162179887Y-117847584D01*
X162179887Y-117847584D02*
X162271880Y-117822935D01*
X162271880Y-117822935D02*
X162419261Y-117821010D01*
X162419261Y-117821010D02*
X162474649Y-117843735D01*
X163113051Y-118386424D02*
X163297037Y-118337125D01*
X163297037Y-118337125D02*
X163379638Y-118277427D01*
X163379638Y-118277427D02*
X163416243Y-118230053D01*
X163416243Y-118230053D02*
X163480062Y-118100255D01*
X163480062Y-118100255D02*
X163488493Y-117947733D01*
X163488493Y-117947733D02*
X163413361Y-117667339D01*
X163413361Y-117667339D02*
X163348582Y-117609565D01*
X163348582Y-117609565D02*
X163293194Y-117586840D01*
X163293194Y-117586840D02*
X163191810Y-117576441D01*
X163191810Y-117576441D02*
X163007824Y-117625739D01*
X163007824Y-117625739D02*
X162925222Y-117685438D01*
X162925222Y-117685438D02*
X162888617Y-117732812D01*
X162888617Y-117732812D02*
X162861404Y-117815235D01*
X162861404Y-117815235D02*
X162908361Y-117990482D01*
X162908361Y-117990482D02*
X162973140Y-118048256D01*
X162973140Y-118048256D02*
X163028528Y-118070981D01*
X163028528Y-118070981D02*
X163129912Y-118081380D01*
X163129912Y-118081380D02*
X163313898Y-118032082D01*
X163313898Y-118032082D02*
X163396500Y-117972383D01*
X163396500Y-117972383D02*
X163433105Y-117925009D01*
X163433105Y-117925009D02*
X163460318Y-117842585D01*
X170635573Y-82121275D02*
X170143292Y-82100398D01*
X170231512Y-82525336D02*
X169692697Y-81986521D01*
X169692697Y-81986521D02*
X169962071Y-81717147D01*
X169962071Y-81717147D02*
X170055072Y-81675461D01*
X170055072Y-81675461D02*
X170114402Y-81667447D01*
X170114402Y-81667447D02*
X170199389Y-81685091D01*
X170199389Y-81685091D02*
X170276363Y-81762065D01*
X170276363Y-81762065D02*
X170294007Y-81847052D01*
X170294007Y-81847052D02*
X170285993Y-81906382D01*
X170285993Y-81906382D02*
X170244308Y-81999383D01*
X170244308Y-81999383D02*
X169974934Y-82268757D01*
X170882455Y-81155973D02*
X171241665Y-81515183D01*
X170508833Y-81119069D02*
X170725342Y-81672296D01*
X170725342Y-81672296D02*
X171163075Y-81234563D01*
X125613881Y-116254940D02*
X126085246Y-115982797D01*
X126085246Y-115982797D02*
X126203328Y-115969608D01*
X126203328Y-115969608D02*
X126313796Y-116015801D01*
X126313796Y-116015801D02*
X126416649Y-116121376D01*
X126416649Y-116121376D02*
X126464268Y-116203854D01*
X125381470Y-115344393D02*
X125821411Y-115090393D01*
X125249123Y-115695732D02*
X125839536Y-115629786D01*
X125839536Y-115629786D02*
X125530012Y-115093675D01*
X175469162Y-90766398D02*
X175450968Y-90823434D01*
X175450968Y-90823434D02*
X175354758Y-90935097D01*
X175354758Y-90935097D02*
X175276744Y-90989724D01*
X175276744Y-90989724D02*
X175138910Y-91041940D01*
X175138910Y-91041940D02*
X175019270Y-91037119D01*
X175019270Y-91037119D02*
X174938637Y-91004985D01*
X174938637Y-91004985D02*
X174816380Y-90913404D01*
X174816380Y-90913404D02*
X174753942Y-90824234D01*
X174753942Y-90824234D02*
X174709698Y-90678026D01*
X174709698Y-90678026D02*
X174707080Y-90591266D01*
X174707080Y-90591266D02*
X174743470Y-90477193D01*
X174743470Y-90477193D02*
X174839679Y-90365530D01*
X174839679Y-90365530D02*
X174917693Y-90310904D01*
X174917693Y-90310904D02*
X175055528Y-90258688D01*
X175055528Y-90258688D02*
X175115347Y-90261098D01*
X176290932Y-90279581D02*
X175822845Y-90607339D01*
X176056889Y-90443460D02*
X175619824Y-89819267D01*
X175619824Y-89819267D02*
X175604247Y-89963063D01*
X175604247Y-89963063D02*
X175567858Y-90077137D01*
X175567858Y-90077137D02*
X175510656Y-90161487D01*
X170780992Y-87048703D02*
X170275693Y-87402518D01*
X170275693Y-87402518D02*
X170243559Y-87483150D01*
X170243559Y-87483150D02*
X170241148Y-87542970D01*
X170241148Y-87542970D02*
X170266051Y-87641797D01*
X170266051Y-87641797D02*
X170375304Y-87797826D01*
X170375304Y-87797826D02*
X170459654Y-87855028D01*
X170459654Y-87855028D02*
X170516690Y-87873223D01*
X170516690Y-87873223D02*
X170603450Y-87870605D01*
X170603450Y-87870605D02*
X171108750Y-87516790D01*
X171295122Y-87909481D02*
X171352158Y-87927675D01*
X171352158Y-87927675D02*
X171436508Y-87984877D01*
X171436508Y-87984877D02*
X171573074Y-88179913D01*
X171573074Y-88179913D02*
X171597977Y-88278740D01*
X171597977Y-88278740D02*
X171595566Y-88338560D01*
X171595566Y-88338560D02*
X171563433Y-88419193D01*
X171563433Y-88419193D02*
X171503986Y-88460818D01*
X171503986Y-88460818D02*
X171387502Y-88484249D01*
X171387502Y-88484249D02*
X170703062Y-88265913D01*
X170703062Y-88265913D02*
X171058133Y-88773007D01*
X163061932Y-75547633D02*
X163053918Y-75606963D01*
X163053918Y-75606963D02*
X162978560Y-75733636D01*
X162978560Y-75733636D02*
X162911217Y-75800979D01*
X162911217Y-75800979D02*
X162784544Y-75876337D01*
X162784544Y-75876337D02*
X162665884Y-75892365D01*
X162665884Y-75892365D02*
X162580897Y-75874721D01*
X162580897Y-75874721D02*
X162444594Y-75805761D01*
X162444594Y-75805761D02*
X162367620Y-75728787D01*
X162367620Y-75728787D02*
X162298660Y-75592484D01*
X162298660Y-75592484D02*
X162281016Y-75507496D01*
X162281016Y-75507496D02*
X162297044Y-75388837D01*
X162297044Y-75388837D02*
X162372401Y-75262164D01*
X162372401Y-75262164D02*
X162439745Y-75194821D01*
X162439745Y-75194821D02*
X162566418Y-75119463D01*
X162566418Y-75119463D02*
X162625748Y-75111449D01*
X162810134Y-74824431D02*
X163247867Y-74386699D01*
X163247867Y-74386699D02*
X163217428Y-74827664D01*
X163217428Y-74827664D02*
X163318443Y-74726649D01*
X163318443Y-74726649D02*
X163411444Y-74684963D01*
X163411444Y-74684963D02*
X163470774Y-74676949D01*
X163470774Y-74676949D02*
X163555762Y-74694593D01*
X163555762Y-74694593D02*
X163684051Y-74822882D01*
X163684051Y-74822882D02*
X163701695Y-74907870D01*
X163701695Y-74907870D02*
X163693681Y-74967200D01*
X163693681Y-74967200D02*
X163651995Y-75060201D01*
X163651995Y-75060201D02*
X163449965Y-75262231D01*
X163449965Y-75262231D02*
X163356963Y-75303917D01*
X163356963Y-75303917D02*
X163297634Y-75311931D01*
X166291903Y-123138573D02*
X166255298Y-123185947D01*
X166255298Y-123185947D02*
X166126700Y-123257970D01*
X166126700Y-123257970D02*
X166034707Y-123282620D01*
X166034707Y-123282620D02*
X165887327Y-123284545D01*
X165887327Y-123284545D02*
X165776551Y-123239095D01*
X165776551Y-123239095D02*
X165711771Y-123181322D01*
X165711771Y-123181322D02*
X165628209Y-123053449D01*
X165628209Y-123053449D02*
X165600035Y-122948301D01*
X165600035Y-122948301D02*
X165608466Y-122795779D01*
X165608466Y-122795779D02*
X165635679Y-122713356D01*
X165635679Y-122713356D02*
X165708889Y-122618608D01*
X165708889Y-122618608D02*
X165837487Y-122546584D01*
X165837487Y-122546584D02*
X165929480Y-122521935D01*
X165929480Y-122521935D02*
X166076861Y-122520010D01*
X166076861Y-122520010D02*
X166132249Y-122542735D01*
X167007143Y-122496136D02*
X167138623Y-122986827D01*
X166702029Y-122277365D02*
X166612918Y-122864729D01*
X166612918Y-122864729D02*
X167210872Y-122704507D01*
X139989562Y-127769453D02*
X139924637Y-127281026D01*
X139521475Y-127441695D02*
X139958540Y-126817501D01*
X139958540Y-126817501D02*
X140270598Y-127036007D01*
X140270598Y-127036007D02*
X140327800Y-127120356D01*
X140327800Y-127120356D02*
X140345994Y-127177393D01*
X140345994Y-127177393D02*
X140343376Y-127264153D01*
X140343376Y-127264153D02*
X140280939Y-127353324D01*
X140280939Y-127353324D02*
X140200306Y-127385458D01*
X140200306Y-127385458D02*
X140140486Y-127387868D01*
X140140486Y-127387868D02*
X140041659Y-127362965D01*
X140041659Y-127362965D02*
X139729601Y-127144460D01*
X140379634Y-128042585D02*
X140535663Y-128151837D01*
X140535663Y-128151837D02*
X140634490Y-128176740D01*
X140634490Y-128176740D02*
X140694310Y-128174330D01*
X140694310Y-128174330D02*
X140834762Y-128139786D01*
X140834762Y-128139786D02*
X140957020Y-128048205D01*
X140957020Y-128048205D02*
X141123521Y-127810417D01*
X141123521Y-127810417D02*
X141126139Y-127723656D01*
X141126139Y-127723656D02*
X141107945Y-127666620D01*
X141107945Y-127666620D02*
X141050743Y-127582270D01*
X141050743Y-127582270D02*
X140894714Y-127473017D01*
X140894714Y-127473017D02*
X140795887Y-127448114D01*
X140795887Y-127448114D02*
X140736067Y-127450525D01*
X140736067Y-127450525D02*
X140655434Y-127482659D01*
X140655434Y-127482659D02*
X140551371Y-127631276D01*
X140551371Y-127631276D02*
X140548753Y-127718036D01*
X140548753Y-127718036D02*
X140566948Y-127775073D01*
X140566948Y-127775073D02*
X140624150Y-127859423D01*
X140624150Y-127859423D02*
X140780179Y-127968676D01*
X140780179Y-127968676D02*
X140879006Y-127993578D01*
X140879006Y-127993578D02*
X140938826Y-127991168D01*
X140938826Y-127991168D02*
X141019458Y-127959034D01*
X138472597Y-118541412D02*
X138475007Y-118601232D01*
X138475007Y-118601232D02*
X138422791Y-118739066D01*
X138422791Y-118739066D02*
X138368165Y-118817081D01*
X138368165Y-118817081D02*
X138256502Y-118913290D01*
X138256502Y-118913290D02*
X138142429Y-118949679D01*
X138142429Y-118949679D02*
X138055669Y-118947061D01*
X138055669Y-118947061D02*
X137909461Y-118902818D01*
X137909461Y-118902818D02*
X137820291Y-118840380D01*
X137820291Y-118840380D02*
X137728710Y-118718122D01*
X137728710Y-118718122D02*
X137696576Y-118637490D01*
X137696576Y-118637490D02*
X137691755Y-118517850D01*
X137691755Y-118517850D02*
X137743971Y-118380016D01*
X137743971Y-118380016D02*
X137798598Y-118302001D01*
X137798598Y-118302001D02*
X137910261Y-118205792D01*
X137910261Y-118205792D02*
X137967297Y-118187597D01*
X138099042Y-117872921D02*
X138481427Y-117326820D01*
X138481427Y-117326820D02*
X138859802Y-118114950D01*
X125738095Y-101980609D02*
X125738095Y-102597466D01*
X125738095Y-102597466D02*
X125785714Y-102670038D01*
X125785714Y-102670038D02*
X125833333Y-102706324D01*
X125833333Y-102706324D02*
X125928571Y-102742609D01*
X125928571Y-102742609D02*
X126119047Y-102742609D01*
X126119047Y-102742609D02*
X126214285Y-102706324D01*
X126214285Y-102706324D02*
X126261904Y-102670038D01*
X126261904Y-102670038D02*
X126309523Y-102597466D01*
X126309523Y-102597466D02*
X126309523Y-101980609D01*
X127261904Y-101980609D02*
X126785714Y-101980609D01*
X126785714Y-101980609D02*
X126738095Y-102343466D01*
X126738095Y-102343466D02*
X126785714Y-102307181D01*
X126785714Y-102307181D02*
X126880952Y-102270895D01*
X126880952Y-102270895D02*
X127119047Y-102270895D01*
X127119047Y-102270895D02*
X127214285Y-102307181D01*
X127214285Y-102307181D02*
X127261904Y-102343466D01*
X127261904Y-102343466D02*
X127309523Y-102416038D01*
X127309523Y-102416038D02*
X127309523Y-102597466D01*
X127309523Y-102597466D02*
X127261904Y-102670038D01*
X127261904Y-102670038D02*
X127214285Y-102706324D01*
X127214285Y-102706324D02*
X127119047Y-102742609D01*
X127119047Y-102742609D02*
X126880952Y-102742609D01*
X126880952Y-102742609D02*
X126785714Y-102706324D01*
X126785714Y-102706324D02*
X126738095Y-102670038D01*
%TO.C,SW1*%
D13*
X170741025Y-115747595D02*
X169008975Y-114747595D01*
X168002405Y-110991025D02*
X169002405Y-109258975D01*
X175497595Y-113008975D02*
X174497595Y-114741025D01*
X174491025Y-109252405D02*
X172758975Y-108252405D01*
%TO.C,J1*%
D14*
X131669926Y-117862251D02*
X130809562Y-119090979D01*
X129312527Y-121228966D02*
X136193404Y-126047008D01*
X132079502Y-118149039D02*
X131669926Y-117862251D01*
X138141228Y-122393505D02*
X138550804Y-122680293D01*
X138550804Y-122680293D02*
X137690439Y-123909021D01*
%TO.C,C5*%
D15*
X155456237Y-125732211D02*
X155529007Y-126003792D01*
X154470993Y-125996208D02*
X154543763Y-126267789D01*
%TO.C,C2*%
X170592320Y-83162866D02*
X170822632Y-83001599D01*
X171177368Y-83998401D02*
X171407680Y-83837134D01*
%TO.C,R3*%
X167560654Y-85450420D02*
X167200420Y-85810654D01*
X168299580Y-86189346D02*
X167939346Y-86549580D01*
%TO.C,U6*%
X158217250Y-122978681D02*
X159975235Y-122507630D01*
X158236661Y-123051125D02*
X158217250Y-122978681D01*
X159024765Y-125992370D02*
X159005354Y-125919925D01*
X159975235Y-122507630D02*
X159994646Y-122580075D01*
X160763339Y-125448875D02*
X160782750Y-125521319D01*
X160782750Y-125521319D02*
X159024765Y-125992370D01*
X157713767Y-123186058D02*
X157396535Y-122929419D01*
X157860179Y-122805186D01*
X157713767Y-123186058D01*
G36*
X157713767Y-123186058D02*
G01*
X157396535Y-122929419D01*
X157860179Y-122805186D01*
X157713767Y-123186058D01*
G37*
%TO.C,U4*%
X172590000Y-98440000D02*
X174410000Y-98440000D01*
X172590000Y-98490000D02*
X172590000Y-98440000D01*
X172590000Y-101560000D02*
X172590000Y-101510000D01*
X174410000Y-98440000D02*
X174410000Y-98490000D01*
X174410000Y-101510000D02*
X174410000Y-101560000D01*
X174410000Y-101560000D02*
X172590000Y-101560000D01*
X172050000Y-98490000D02*
X171810000Y-98160000D01*
X172290000Y-98160000D01*
X172050000Y-98490000D01*
G36*
X172050000Y-98490000D02*
G01*
X171810000Y-98160000D01*
X172290000Y-98160000D01*
X172050000Y-98490000D01*
G37*
%TO.C,C6*%
X156470993Y-126996208D02*
X156543763Y-127267789D01*
X157456237Y-126732211D02*
X157529007Y-127003792D01*
%TO.C,R7*%
X163198313Y-119929376D02*
X162706223Y-120061231D01*
X163468777Y-120938769D02*
X162976687Y-121070624D01*
%TO.C,R2*%
X144968097Y-125491648D02*
X144675890Y-125908965D01*
X145824110Y-126091035D02*
X145531903Y-126508352D01*
%TO.C,R6*%
X160118723Y-126311231D02*
X160610813Y-126179376D01*
X160389187Y-127320624D02*
X160881277Y-127188769D01*
%TO.C,U3*%
X164503446Y-79209619D02*
X164538802Y-79174264D01*
X165790381Y-80496554D02*
X164503446Y-79209619D01*
X165825736Y-80461198D02*
X165790381Y-80496554D01*
X166674264Y-77038802D02*
X166709619Y-77003446D01*
X166709619Y-77003446D02*
X167996554Y-78290381D01*
X167996554Y-78290381D02*
X167961198Y-78325736D01*
X166207574Y-80843036D02*
X166143934Y-81246087D01*
X165804523Y-80906676D01*
X166207574Y-80843036D01*
G36*
X166143934Y-81246087D02*
G01*
X165804523Y-80906676D01*
X166207574Y-80843036D01*
X166143934Y-81246087D01*
G37*
%TO.C,D2*%
X134719001Y-118611183D02*
X135833048Y-119391247D01*
X135177863Y-117955861D02*
X136291909Y-118735925D01*
X135833048Y-119391247D02*
X136291909Y-118735925D01*
D13*
%TO.C,D3*%
X178250000Y-96500000D02*
X178750000Y-97000000D01*
X178750000Y-96500000D01*
X178250000Y-96500000D01*
G36*
X178750000Y-97000000D02*
G01*
X178250000Y-96500000D01*
X178750000Y-96500000D01*
X178750000Y-97000000D01*
G37*
%TO.C,D1*%
D15*
X144546162Y-128544862D02*
X145750316Y-129388019D01*
X145750316Y-129388019D02*
X147060938Y-127516257D01*
X145856784Y-126673100D02*
X144546162Y-128544862D01*
%TO.C,R5*%
X163860813Y-124679376D02*
X163368723Y-124811231D01*
X164131277Y-125688769D02*
X163639187Y-125820624D01*
D13*
%TO.C,D7*%
X122250000Y-96500000D02*
X122750000Y-97000000D01*
X122750000Y-96500000D01*
X122250000Y-96500000D01*
G36*
X122750000Y-97000000D02*
G01*
X122250000Y-96500000D01*
X122750000Y-96500000D01*
X122750000Y-97000000D01*
G37*
%TO.C,Q2*%
D15*
X156112139Y-119439858D02*
X157580346Y-119046453D01*
X156125080Y-119488154D02*
X156112139Y-119439858D01*
X156616836Y-121323414D02*
X156414957Y-120569991D01*
X156919654Y-122453547D02*
X156906713Y-122405250D01*
X157580346Y-119046453D02*
X157839165Y-120012379D01*
X158129042Y-121094216D02*
X158387861Y-122060142D01*
X158387861Y-122060142D02*
X156919654Y-122453547D01*
X155895945Y-120719413D02*
X156213178Y-120976052D01*
X155749533Y-121100285D01*
X155895945Y-120719413D01*
G36*
X156213178Y-120976052D02*
G01*
X155749533Y-121100285D01*
X155895945Y-120719413D01*
X156213178Y-120976052D01*
G37*
%TO.C,C8*%
X143520874Y-124662630D02*
X143359607Y-124892942D01*
X144356409Y-125247678D02*
X144195142Y-125477990D01*
D13*
%TO.C,D10*%
X153500000Y-72250000D02*
X153000000Y-72750000D01*
X153500000Y-72750000D01*
X153500000Y-72250000D01*
G36*
X153500000Y-72750000D02*
G01*
X153000000Y-72750000D01*
X153500000Y-72250000D01*
X153500000Y-72750000D01*
G37*
%TO.C,D6*%
X152500000Y-128250000D02*
X152000000Y-128750000D01*
X152500000Y-128750000D01*
X152500000Y-128250000D01*
G36*
X152500000Y-128750000D02*
G01*
X152000000Y-128750000D01*
X152500000Y-128250000D01*
X152500000Y-128750000D01*
G37*
%TO.C,U1*%
D15*
X140217800Y-122326233D02*
X140246479Y-122285275D01*
X141708657Y-123370142D02*
X140217800Y-122326233D01*
X141737336Y-123329184D02*
X141708657Y-123370142D01*
X141978680Y-119811436D02*
X142007359Y-119770478D01*
X142007359Y-119770478D02*
X143498216Y-120814387D01*
X143498216Y-120814387D02*
X143469537Y-120855345D01*
X142179678Y-123638915D02*
X142186994Y-124046894D01*
X141793801Y-123771577D01*
X142179678Y-123638915D01*
G36*
X142186994Y-124046894D02*
G01*
X141793801Y-123771577D01*
X142179678Y-123638915D01*
X142186994Y-124046894D01*
G37*
%TO.C,RV1*%
D13*
X162951903Y-83676777D02*
X164719670Y-85444544D01*
X165426777Y-81201903D02*
X167194544Y-82969670D01*
%TO.C,R1*%
D15*
X139576105Y-124061959D02*
X139283897Y-124479274D01*
X140432119Y-124661346D02*
X140139911Y-125078661D01*
%TO.C,R8*%
X163118723Y-121561231D02*
X163610813Y-121429376D01*
X163389187Y-122570624D02*
X163881277Y-122438769D01*
%TO.C,C9*%
X159982211Y-118293763D02*
X160253792Y-118220993D01*
X160246208Y-119279007D02*
X160517789Y-119206237D01*
%TO.C,R4*%
X169310654Y-80200420D02*
X168950420Y-80560654D01*
X170049580Y-80939346D02*
X169689346Y-81299580D01*
%TO.C,J4*%
D13*
X122801443Y-108544872D02*
X124100481Y-107794873D01*
X124426443Y-111359456D02*
X122801443Y-108544872D01*
X125507772Y-106982374D02*
X126590304Y-106357373D01*
X126176443Y-114390544D02*
X127801443Y-117205127D01*
X126590304Y-106357373D02*
X127090305Y-107223399D01*
X127801443Y-117205127D02*
X129100481Y-116455127D01*
X130507772Y-115642626D02*
X131590304Y-115017627D01*
X131590304Y-115017627D02*
X131090303Y-114151601D01*
D14*
X130590437Y-111363333D02*
G75*
G02*
X130449017Y-111363333I-70710J0D01*
G01*
X130449017Y-111363333D02*
G75*
G02*
X130590437Y-111363333I70710J0D01*
G01*
%TO.C,C1*%
D15*
X174342320Y-88912866D02*
X174572632Y-88751599D01*
X174927368Y-89748401D02*
X175157680Y-89587134D01*
%TO.C,U2*%
X171873808Y-87091543D02*
X171414946Y-86436221D01*
X171873808Y-87091543D02*
X172332670Y-87746864D01*
X175085054Y-86063779D02*
X174052616Y-84589305D01*
X172660415Y-88127763D02*
X172527753Y-88513638D01*
X172252436Y-88120445D01*
X172660415Y-88127763D01*
G36*
X172660415Y-88127763D02*
G01*
X172527753Y-88513638D01*
X172252436Y-88120445D01*
X172660415Y-88127763D01*
G37*
%TO.C,C3*%
X163539970Y-75988781D02*
X163738781Y-75789970D01*
X164261219Y-76710030D02*
X164460030Y-76511219D01*
%TO.C,C4*%
X163732211Y-123043763D02*
X164003792Y-122970993D01*
X163996208Y-124029007D02*
X164267789Y-123956237D01*
%TO.C,R9*%
X141076105Y-125061959D02*
X140783897Y-125479274D01*
X141932119Y-125661346D02*
X141639911Y-126078661D01*
%TO.C,C7*%
X138706599Y-119392942D02*
X138867866Y-119162630D01*
X139542134Y-119977990D02*
X139703401Y-119747678D01*
%TO.C,U5*%
X125590000Y-98440000D02*
X127410000Y-98440000D01*
X125590000Y-98490000D02*
X125590000Y-98440000D01*
X125590000Y-101560000D02*
X125590000Y-101510000D01*
X127410000Y-98440000D02*
X127410000Y-98490000D01*
X127410000Y-101510000D02*
X127410000Y-101560000D01*
X127410000Y-101560000D02*
X125590000Y-101560000D01*
X127950000Y-101510000D02*
X128190000Y-101840000D01*
X127710000Y-101840000D01*
X127950000Y-101510000D01*
G36*
X128190000Y-101840000D02*
G01*
X127710000Y-101840000D01*
X127950000Y-101510000D01*
X128190000Y-101840000D01*
G37*
%TD*%
M02*
